<?xml version="1.0" encoding="UTF-8"?>
<svg version="1.1" xmlns="http://www.w3.org/2000/svg" width="400" height="400">
<path d="M0 0 C1.62639404 -0.01522705 1.62639404 -0.01522705 3.28564453 -0.03076172 C29.18118968 0.24785378 47.39727746 16.22509579 66.19604492 32.08398438 C68.04376774 33.61527404 68.04376774 33.61527404 70.875 35.4375 C70.875 36.0975 70.875 36.7575 70.875 37.4375 C71.43574219 37.67984375 71.99648437 37.9221875 72.57421875 38.171875 C75.33585633 39.6910101 77.37531442 41.54645257 79.6875 43.6875 C83.6753215 47.3646645 87.74101213 50.9267903 91.875 54.4375 C103.49666851 42.13162174 103.49666851 42.13162174 114.59765625 29.359375 C118.35526932 24.89979026 122.03911758 21.69242086 126.875 18.4375 C127.33777344 17.96570313 127.80054688 17.49390625 128.27734375 17.0078125 C141.04615399 4.45753936 159.55485313 0.07000431 176.8125 0.125 C177.81990234 0.10888672 178.82730469 0.09277344 179.86523438 0.07617188 C195.80987802 0.06591808 211.16496431 6.61222256 222.875 17.4375 C225.125 20.0625 225.125 20.0625 226.875 22.4375 C228.050625 23.5203125 228.050625 23.5203125 229.25 24.625 C242.37753508 38.69021616 245.91947902 57.21864425 245.31640625 75.7734375 C244.08220463 96.25637143 233.26772094 114.80513438 218.5625 128.6875 C211.4772326 134.72172424 203.33514614 138.88702545 194.83984375 142.55859375 C189.52725632 144.93499966 185.95769297 147.50526084 183.56640625 152.828125 C181.37804346 161.0870309 181.78247164 169.93453134 185.875 177.4375 C185.875 178.4275 185.875 179.4175 185.875 180.4375 C186.865 180.7675 187.855 181.0975 188.875 181.4375 C189.47570312 182.20835937 190.07640625 182.97921875 190.6953125 183.7734375 C197.55487895 192.15735205 209.55105304 195.16984722 219.875 196.4375 C235.99282525 197.72619999 252.44501786 194.66303796 265.3515625 184.484375 C275.16473718 175.14899535 280.94639899 162.6384824 281.37498474 149.0914917 C281.41481795 144.68335265 281.34355355 140.28201181 281.25 135.875 C281.23344743 134.05405536 281.21911126 132.23308918 281.20703125 130.41210938 C281.20312172 120.86160972 281.20312172 120.86160972 279.875 111.4375 C278.7472945 95.19512353 280.3698255 82.50117437 288.875 68.4375 C289.27332031 67.76976562 289.67164063 67.10203125 290.08203125 66.4140625 C291.125 64.75 291.125 64.75 292.875 62.4375 C293.535 62.4375 294.195 62.4375 294.875 62.4375 C295.205 61.4475 295.535 60.4575 295.875 59.4375 C297.525 59.1075 299.175 58.7775 300.875 58.4375 C300.29524654 62.35083589 298.36836653 64.44546016 295.875 67.4375 C292.66059208 71.78197321 291.00910581 75.58001986 289.6875 80.8125 C289.36394531 82.05773437 289.04039062 83.30296875 288.70703125 84.5859375 C287.07600401 92.1361387 286.74479239 99.31486424 286.8125 107.0078125 C286.81628662 108.0065036 286.82007324 109.0051947 286.82397461 110.03414917 C286.84016286 114.26956413 286.86817454 118.50487895 286.89550781 122.74023438 C287.09242026 156.17389557 287.09242026 156.17389557 283.25 166.125 C282.98203613 166.84067139 282.71407227 167.55634277 282.43798828 168.29370117 C275.63683394 185.75288193 262.93035377 198.18445417 245.93359375 205.74609375 C233.47267735 210.34533365 218.19085959 210.28487345 205.7109375 205.77734375 C200.98807407 203.54601847 196.9575482 200.66823833 192.875 197.4375 C191.9675 196.839375 191.06 196.24125 190.125 195.625 C182.17363934 187.89451047 177.77556226 176.34939943 177.55615234 165.39697266 C177.5765135 158.71068287 178.02720949 152.06922391 178.875 145.4375 C176.91820312 145.38142578 176.91820312 145.38142578 174.921875 145.32421875 C158.0228664 144.73965166 145.74581681 141.32506162 130.875 133.4375 C129.54420307 132.76578446 128.21240228 132.09596592 126.875 131.4375 C126.875 130.7775 126.875 130.1175 126.875 129.4375 C126.19824219 129.23382813 125.52148438 129.03015625 124.82421875 128.8203125 C120.82880781 126.94696751 117.94608491 124.25123398 114.6875 121.3125 C113.36085373 120.13505054 112.03272449 118.95926986 110.703125 117.78515625 C110.05537109 117.21297363 109.40761719 116.64079102 108.74023438 116.05126953 C105.44711724 113.20211976 102.00280888 110.55894187 98.53515625 107.92578125 C97.98730469 107.43464844 97.43945312 106.94351563 96.875 106.4375 C96.875 105.7775 96.875 105.1175 96.875 104.4375 C96.29234375 104.169375 95.7096875 103.90125 95.109375 103.625 C92.84713399 102.42269009 91.06923682 101.09924087 89.125 99.4375 C88.51140625 98.921875 87.8978125 98.40625 87.265625 97.875 C85.875 96.4375 85.875 96.4375 85.875 94.4375 C83.22622304 93.01851234 80.79485181 92.11838981 77.875 91.4375 C66.67339853 103.42844892 66.67339853 103.42844892 56.0625 115.9375 C55.340625 116.7625 54.61875 117.5875 53.875 118.4375 C53.215 118.4375 52.555 118.4375 51.875 118.4375 C51.6378125 119.01757812 51.400625 119.59765625 51.15625 120.1953125 C46.92752288 127.59558496 37.14474369 132.4187473 29.875 136.4375 C29.19695312 136.81777344 28.51890625 137.19804687 27.8203125 137.58984375 C15.45875969 144.16777848 0.74913372 146.32351144 -13.125 145.4375 C-14.04410156 145.38078125 -14.96320313 145.3240625 -15.91015625 145.265625 C-30.37381782 143.63043311 -44.35058418 134.96379396 -54.125 124.4375 C-54.66898438 123.85226563 -55.21296875 123.26703125 -55.7734375 122.6640625 C-66.12676918 111.22566549 -74.00020848 97.23610678 -74.125 81.4375 C-74.16238281 80.44621094 -74.19976562 79.45492187 -74.23828125 78.43359375 C-74.71379627 57.63606839 -68.93346336 39.27496205 -55.125 23.4375 C-54.465 23.4375 -53.805 23.4375 -53.125 23.4375 C-52.90585937 22.86773437 -52.68671875 22.29796875 -52.4609375 21.7109375 C-47.6824745 13.57916714 -35.4699949 7.92164127 -27.125 4.4375 C-26.15046875 4.02371094 -25.1759375 3.60992187 -24.171875 3.18359375 C-16.14744187 0.34737169 -8.45327582 0.05617192 0 0 Z M127.625 29.0625 C127.15707031 29.64 126.68914062 30.2175 126.20703125 30.8125 C124.25913681 33.18881697 122.07399281 35.29489162 119.875 37.4375 C119.070625 38.241875 118.26625 39.04625 117.4375 39.875 C116.04552359 41.26697641 114.64853495 42.65430541 113.2265625 44.015625 C111.74005378 45.45328132 110.30368383 46.94236576 108.875 48.4375 C108.875 49.0975 108.875 49.7575 108.875 50.4375 C107.98748047 50.82808594 107.98748047 50.82808594 107.08203125 51.2265625 C104.73472454 52.5144653 103.32475232 53.80974178 101.5625 55.8125 C100.76392578 56.69035156 100.76392578 56.69035156 99.94921875 57.5859375 C98.68089896 59.37343597 98.68089896 59.37343597 99.015625 61.45703125 C100.01392153 63.75765099 101.1251733 65.02023944 102.9375 66.75 C103.88496094 67.65685547 103.88496094 67.65685547 104.8515625 68.58203125 C107.471047 70.9840682 110.12127396 73.34328814 112.81640625 75.66015625 C114.25479965 76.9020329 115.67821057 78.16138113 117.08984375 79.43359375 C117.80269531 80.07425781 118.51554687 80.71492188 119.25 81.375 C119.89710938 81.96152344 120.54421875 82.54804688 121.2109375 83.15234375 C122.78839058 84.64124533 122.78839058 84.64124533 124.875 84.4375 C125.205 85.4275 125.535 86.4175 125.875 87.4375 C129.00842881 90.34101265 132.48254826 92.8446008 135.875 95.4375 C136.81214844 96.17742187 137.74929687 96.91734375 138.71484375 97.6796875 C149.88966798 106.34955113 163.61318008 116.5429579 178.52734375 115.77734375 C194.77234908 113.42573732 205.82267026 106.58586892 215.875 93.4375 C224.66975046 80.67837625 225.89513384 67.24864751 223.33984375 52.30859375 C220.4142687 38.59167602 211.57823416 26.79408467 200.08203125 18.8125 C190.84768854 13.05942277 182.75994606 10.27994669 171.875 9.4375 C171.13507813 9.36660156 170.39515625 9.29570313 169.6328125 9.22265625 C154.10660333 8.41735494 137.49715587 17.51157651 127.625 29.0625 Z M-42.6875 48.375 C-43.491875 49.385625 -44.29625 50.39625 -45.125 51.4375 C-46.1459375 52.7059375 -46.1459375 52.7059375 -47.1875 54 C-54.33542543 66.68180318 -55.65835812 81.4576918 -52.125 95.4375 C-49.90180972 102.99634697 -46.16207872 108.45746105 -41.125 114.4375 C-40.50625 115.30375 -39.8875 116.17 -39.25 117.0625 C-29.42320232 128.04539153 -14.85644677 134.48726436 -0.25 135.50390625 C14.9432115 135.18105051 26.49746091 130.25622665 37.875 120.4375 C38.66261719 119.77234375 39.45023437 119.1071875 40.26171875 118.421875 C44.5353916 114.73592287 48.397875 110.90713765 52.03515625 106.59375 C54.97279209 103.15091564 58.0754346 99.85739858 61.15234375 96.5390625 C63.08631402 94.63260178 63.08631402 94.63260178 62.875 92.4375 C63.431875 92.23125 63.98875 92.025 64.5625 91.8125 C67.92013643 89.81606753 69.62435212 87.65271125 71.875 84.4375 C71.67288053 81.96394269 71.18493629 80.78048425 69.51953125 78.9375 C68.91496094 78.4425 68.31039062 77.9475 67.6875 77.4375 C66.97207031 76.839375 66.25664062 76.24125 65.51953125 75.625 C64.64683594 74.903125 63.77414063 74.18125 62.875 73.4375 C60.5349848 71.44527723 58.20585806 69.44042147 55.875 67.4375 C54.65107586 66.39058502 53.42711825 65.34370917 52.203125 64.296875 C49.65751349 62.1153286 47.13411017 59.91102039 44.625 57.6875 C40.9928491 54.495844 37.23640148 51.47590774 33.44140625 48.48046875 C31.74438407 47.12956677 30.06413393 45.75729481 28.40234375 44.36328125 C17.38461391 35.19639033 5.87416087 28.68497099 -8.72265625 29.09375 C-23.16367709 30.55277392 -33.35477636 37.67651193 -42.6875 48.375 Z " fill="#D14069" transform="translate(94.125,113.5625)"/>
<path d="M0 0 C1.0209375 -0.020625 2.041875 -0.04125 3.09375 -0.0625 C19.11357549 -0.14381891 34.47880647 6.36818554 46.25 17.25 C48.5 19.875 48.5 19.875 50.25 22.25 C51.425625 23.3328125 51.425625 23.3328125 52.625 24.4375 C65.75253508 38.50271616 69.29447902 57.03114425 68.69140625 75.5859375 C67.45720463 96.06887143 56.64272094 114.61763438 41.9375 128.5 C34.8522326 134.53422424 26.71014614 138.69952545 18.21484375 142.37109375 C12.90225632 144.74749966 9.33269297 147.31776084 6.94140625 152.640625 C4.75304346 160.8995309 5.15747164 169.74703134 9.25 177.25 C9.25 178.24 9.25 179.23 9.25 180.25 C10.24 180.58 11.23 180.91 12.25 181.25 C12.85070312 182.02085937 13.45140625 182.79171875 14.0703125 183.5859375 C20.92987895 191.96985205 32.92605304 194.98234722 43.25 196.25 C59.36782525 197.53869999 75.82001786 194.47553796 88.7265625 184.296875 C98.53973718 174.96149535 104.32139899 162.4509824 104.74998474 148.9039917 C104.78981795 144.49585265 104.71855355 140.09451181 104.625 135.6875 C104.60844743 133.86655536 104.59411126 132.04558918 104.58203125 130.22460938 C104.57812172 120.67410972 104.57812172 120.67410972 103.25 111.25 C102.1222945 95.00762353 103.7448255 82.31367437 112.25 68.25 C112.64832031 67.58226562 113.04664063 66.91453125 113.45703125 66.2265625 C114.5 64.5625 114.5 64.5625 116.25 62.25 C116.91 62.25 117.57 62.25 118.25 62.25 C118.58 61.26 118.91 60.27 119.25 59.25 C121.725 58.755 121.725 58.755 124.25 58.25 C123.67024654 62.16333589 121.74336653 64.25796016 119.25 67.25 C116.03559208 71.59447321 114.38410581 75.39251986 113.0625 80.625 C112.73894531 81.87023437 112.41539062 83.11546875 112.08203125 84.3984375 C110.45100401 91.9486387 110.11979239 99.12736424 110.1875 106.8203125 C110.19128662 107.8190036 110.19507324 108.8176947 110.19897461 109.84664917 C110.21516286 114.08206413 110.24317454 118.31737895 110.27050781 122.55273438 C110.46742026 155.98639557 110.46742026 155.98639557 106.625 165.9375 C106.35703613 166.65317139 106.08907227 167.36884277 105.81298828 168.10620117 C99.01183394 185.56538193 86.30535377 197.99695417 69.30859375 205.55859375 C56.84767735 210.15783365 41.56585959 210.09737345 29.0859375 205.58984375 C24.36307407 203.35851847 20.3325482 200.48073833 16.25 197.25 C15.3425 196.651875 14.435 196.05375 13.5 195.4375 C5.54863934 187.70701047 1.15056226 176.16189943 0.93115234 165.20947266 C0.9515135 158.52318287 1.40220949 151.88172391 2.25 145.25 C0.29320312 145.19392578 0.29320312 145.19392578 -1.703125 145.13671875 C-11.42635098 144.79344757 -20.43259437 144.2611128 -29.75 141.25 C-29.22401342 137.11861454 -27.02808905 135.16431427 -24.1875 132.25 C-20.32627292 128.28495079 -17.70492264 124.48066548 -15.0625 119.5625 C-13.1171875 116.51953125 -13.1171875 116.51953125 -10.75 114.25 C-6.93008558 113.54110335 -3.62964722 113.7546052 0.23828125 114.0625 C10.45691548 114.8185148 19.99144337 110.74093129 27.8203125 104.4453125 C38.92070586 94.41569664 45.5436374 83.2924975 47.25 68.25 C47.54644581 51.25377368 42.19914561 37.89447274 30.671875 25.57421875 C14.3381976 9.89915738 -4.37843578 9.85230413 -25.75 10.25 C-26.41 8.93 -27.07 7.61 -27.75 6.25 C-24.22355494 1.93990049 -19.22394967 1.1777596 -13.92675781 0.45947266 C-9.29396329 0.01365192 -4.65058446 0.02313724 0 0 Z " fill="#24181B" transform="translate(270.75,113.75)"/>
<path d="M0 0 C1.65153076 -0.02779541 1.65153076 -0.02779541 3.33642578 -0.05615234 C10.59671909 -0.00037964 16.23369159 1.28758069 22.75 4.5 C20.69328551 8.85802694 17.77770869 12.15498327 14.61352539 15.77270508 C11.89776953 18.93682823 9.98066902 21.94523423 8.1875 25.6875 C6.8125 27.8671875 6.8125 27.8671875 4.75 29.5 C0.50423079 30.22861717 -3.55592827 30.3189868 -7.8515625 30.35546875 C-17.55889543 30.49630706 -25.5380853 34.05133738 -33.12890625 39.9140625 C-35.25 41.5 -35.25 41.5 -37.40234375 42.4609375 C-39.77461285 43.79502541 -40.15268999 45.04220401 -41.25 47.5 C-42.36283124 48.98834326 -43.489054 50.46672275 -44.625 51.9375 C-52.33335292 62.88978478 -54.42376542 76.57480125 -52.5625 89.6875 C-50.31393938 100.93030312 -45.60669356 109.38190625 -37.375 117.375 C-35.25 119.5 -35.25 119.5 -34.25 122.5 C-32.59750513 123.20105843 -30.92632417 123.85800351 -29.25 124.5 C-28.07432441 125.27822498 -26.90859968 126.07157358 -25.75 126.875 C-15.99922149 133.08171024 -4.45982972 134.70122548 6.88671875 134.41015625 C7.60754639 134.3956543 8.32837402 134.38115234 9.07104492 134.36621094 C10.50023041 134.33098172 11.92909687 134.27629829 13.35668945 134.20019531 C15.34375 134.14453125 15.34375 134.14453125 18.75 134.5 C20.71875 136.51171875 20.71875 136.51171875 21.75 138.5 C20.76 138.5 19.77 138.5 18.75 138.5 C18.42 139.49 18.09 140.48 17.75 141.5 C8.31820973 145.48447861 -3.11394165 146.14729545 -13.25 145.5 C-14.16910156 145.44328125 -15.08820313 145.3865625 -16.03515625 145.328125 C-30.49881782 143.69293311 -44.47558418 135.02629396 -54.25 124.5 C-54.79398438 123.91476563 -55.33796875 123.32953125 -55.8984375 122.7265625 C-66.25176918 111.28816549 -74.12520848 97.29860678 -74.25 81.5 C-74.28738281 80.50871094 -74.32476562 79.51742187 -74.36328125 78.49609375 C-74.83879627 57.69856839 -69.05846336 39.33746205 -55.25 23.5 C-54.59 23.5 -53.93 23.5 -53.25 23.5 C-53.03085937 22.93023437 -52.81171875 22.36046875 -52.5859375 21.7734375 C-47.8074745 13.64166714 -35.5949949 7.98414127 -27.25 4.5 C-26.27546875 4.08621094 -25.3009375 3.67242187 -24.296875 3.24609375 C-16.2501536 0.40199394 -8.47784199 0.08919037 0 0 Z " fill="#22171A" transform="translate(94.25,113.5)"/>
<path d="M0 0 C4.34482759 1.34482759 4.34482759 1.34482759 6 3 C7.1121354 13.04568204 4.60925187 20.74344621 -1.3125 28.8125 C-9.15213645 38.24326773 -21.68047345 44.37200629 -33.84619141 45.53857422 C-40.38798345 46.10149786 -46.89850025 46.14397755 -53.4609375 46.1328125 C-55.36052719 46.13424759 -55.36052719 46.13424759 -57.29849243 46.13571167 C-59.96937545 46.13638902 -62.64016556 46.13507936 -65.31103516 46.13037109 C-68.00246394 46.12584823 -70.69382527 46.12577092 -73.38525391 46.13037109 C-94.20193987 46.16358785 -114.85043607 45.84669419 -135.5625 43.625 C-136.83585205 43.49416016 -138.1092041 43.36332031 -139.42114258 43.22851562 C-145.49573119 42.60012287 -151.56588786 41.94060413 -157.6328125 41.2421875 C-188.60849337 37.70588616 -219.80607683 35.11651198 -251 36 C-251.86222168 36.02078613 -252.72444336 36.04157227 -253.61279297 36.06298828 C-269.68884717 36.50186944 -285.62078818 38.41666928 -301.0625 43 C-301.90151855 43.24903076 -302.74053711 43.49806152 -303.60498047 43.75463867 C-307.66209298 45.03184681 -310.65679576 46.30796618 -314 49 C-317.25 49.1875 -317.25 49.1875 -320 49 C-320 46.8125 -320 46.8125 -319 44 C-313.40385818 39.18123177 -306.42291781 37.26116054 -299.4375 35.375 C-297.78983643 34.92616455 -297.78983643 34.92616455 -296.10888672 34.46826172 C-277.33055688 29.5546841 -258.42757502 28.44697667 -239.0859375 28.06298828 C-236.37914473 28.00773887 -233.67463885 27.9271482 -230.96875 27.83984375 C-217.76667544 27.51710185 -204.72355762 28.90189749 -191.60484314 30.23683167 C-181.2003343 31.29226264 -170.78705891 32.25637045 -160.37496948 33.23355103 C-155.87358272 33.65661945 -151.37248546 34.08271302 -146.8714447 34.50944519 C-144.69995753 34.71427289 -142.52829425 34.91724206 -140.35646057 35.11836243 C-135.4339098 35.57461025 -130.51537095 36.04560542 -125.60107422 36.58398438 C-110.92152685 38.14445109 -96.26991678 38.37510315 -81.52246094 38.37060547 C-78.75364231 38.37044232 -75.98548123 38.38446677 -73.21679688 38.41162109 C-40.43773871 39.18357887 -40.43773871 39.18357887 -12 25 C-11.34 25 -10.68 25 -10 25 C-9.731875 24.278125 -9.46375 23.55625 -9.1875 22.8125 C-8 20 -8 20 -6.48828125 17.7421875 C-4.25168687 13.62121832 -4.12587962 9.47033025 -3.625 4.86328125 C-3 2 -3 2 0 0 Z " fill="#D85B7E" transform="translate(330,62)"/>
<path d="M0 0 C-0.57975346 3.91333589 -2.50663347 6.00796016 -5 9 C-8.21440792 13.34447321 -9.86589419 17.14251986 -11.1875 22.375 C-11.51105469 23.62023437 -11.83460938 24.86546875 -12.16796875 26.1484375 C-13.79899599 33.6986387 -14.13020761 40.87736424 -14.0625 48.5703125 C-14.05871338 49.5690036 -14.05492676 50.5676947 -14.05102539 51.59664917 C-14.03483714 55.83206413 -14.00682546 60.06737895 -13.97949219 64.30273438 C-13.78257974 97.73639557 -13.78257974 97.73639557 -17.625 107.6875 C-17.89296387 108.40317139 -18.16092773 109.11884277 -18.43701172 109.85620117 C-25.23816606 127.31538193 -37.94464623 139.74695417 -54.94140625 147.30859375 C-67.40232265 151.90783365 -82.68414041 151.84737345 -95.1640625 147.33984375 C-99.88692593 145.10851847 -103.9174518 142.23073833 -108 139 C-108.9075 138.401875 -109.815 137.80375 -110.75 137.1875 C-118.70136066 129.45701047 -123.09943774 117.91189943 -123.31884766 106.95947266 C-123.29847449 100.2692386 -122.82973356 93.63786848 -122 87 C-126.29 86.67 -130.58 86.34 -135 86 C-135 85.67 -135 85.34 -135 85 C-132.68756208 84.97314588 -130.3750373 84.95367159 -128.0625 84.9375 C-126.77472656 84.92589844 -125.48695313 84.91429687 -124.16015625 84.90234375 C-121 85 -121 85 -120 86 C-119.63239269 88.32817964 -119.29758419 90.6618385 -119 93 C-118.01 92.505 -118.01 92.505 -117 92 C-117.15984375 92.67289062 -117.3196875 93.34578125 -117.484375 94.0390625 C-118.95817493 102.50224695 -119.16337955 111.36713749 -115 119 C-115 119.99 -115 120.98 -115 122 C-113.515 122.495 -113.515 122.495 -112 123 C-111.39929688 123.77085937 -110.79859375 124.54171875 -110.1796875 125.3359375 C-103.32012105 133.71985205 -91.32394696 136.73234722 -81 138 C-64.88217475 139.28869999 -48.42998214 136.22553796 -35.5234375 126.046875 C-25.71026282 116.71149535 -19.92860101 104.2009824 -19.50001526 90.6539917 C-19.46018205 86.24585265 -19.53144645 81.84451181 -19.625 77.4375 C-19.64155257 75.61655536 -19.65588874 73.79558918 -19.66796875 71.97460938 C-19.67187828 62.42410972 -19.67187828 62.42410972 -21 53 C-22.1277055 36.75762353 -20.5051745 24.06367437 -12 10 C-11.60167969 9.33226562 -11.20335937 8.66453125 -10.79296875 7.9765625 C-9.75 6.3125 -9.75 6.3125 -8 4 C-7.34 4 -6.68 4 -6 4 C-5.67 3.01 -5.34 2.02 -5 1 C-3 0 -3 0 0 0 Z " fill="#3A2F32" transform="translate(395,172)"/>
<path d="M0 0 C-0.57975346 3.91333589 -2.50663347 6.00796016 -5 9 C-8.21440792 13.34447321 -9.86589419 17.14251986 -11.1875 22.375 C-11.67283203 24.24285156 -11.67283203 24.24285156 -12.16796875 26.1484375 C-13.79899599 33.6986387 -14.13020761 40.87736424 -14.0625 48.5703125 C-14.05871338 49.5690036 -14.05492676 50.5676947 -14.05102539 51.59664917 C-14.03483714 55.83206413 -14.00682546 60.06737895 -13.97949219 64.30273438 C-13.78275515 97.70661197 -13.78275515 97.70661197 -17.75 107.875 C-18.01441895 108.58970459 -18.27883789 109.30440918 -18.55126953 110.04077148 C-20.49014547 115.11422154 -22.80657596 119.58556088 -26 124 C-26.33 123.34 -26.66 122.68 -27 122 C-26.67 121.01 -26.34 120.02 -26 119 C-27.485 119.495 -27.485 119.495 -29 120 C-27.8641376 116.97103361 -26.5570661 114.11315345 -25.0625 111.25 C-21.27978729 103.69502214 -19.54349198 96.99858246 -19.671875 88.546875 C-19.67374817 87.6836261 -19.67562134 86.8203772 -19.67755127 85.93096924 C-19.68422316 84.12255945 -19.69803929 82.31416288 -19.71875 80.50585938 C-19.75007538 77.74335251 -19.75974698 74.98141747 -19.765625 72.21875 C-19.77479036 70.45311806 -19.78516463 68.68749189 -19.796875 66.921875 C-19.80112488 66.10096375 -19.80537476 65.28005249 -19.80975342 64.43426514 C-19.85904862 60.4762845 -20.13302205 56.87684769 -21 53 C-22.1277055 36.75762353 -20.5051745 24.06367437 -12 10 C-11.60167969 9.33226562 -11.20335937 8.66453125 -10.79296875 7.9765625 C-9.75 6.3125 -9.75 6.3125 -8 4 C-7.34 4 -6.68 4 -6 4 C-5.67 3.01 -5.34 2.02 -5 1 C-3 0 -3 0 0 0 Z " fill="#443B3D" transform="translate(395,172)"/>
<path d="M0 0 C0.33 0 0.66 0 1 0 C1.06440694 7.66739835 1.0565716 15.33257464 1 23 C0.9995166 23.72251953 0.9990332 24.44503906 0.99853516 25.18945312 C0.92634584 38.26603266 -3.32028499 51.38392337 -11 62 C-11.33 61.34 -11.66 60.68 -12 60 C-11.67 59.01 -11.34 58.02 -11 57 C-12.485 57.495 -12.485 57.495 -14 58 C-12.8641376 54.97103361 -11.5570661 52.11315345 -10.0625 49.25 C-5.24164978 39.51020431 -4.48253509 30.65460369 -4.3125 19.9375 C-4.27926379 18.48499645 -4.24476849 17.03252114 -4.20898438 15.58007812 C-4.12480821 12.05359261 -4.05766349 8.52703038 -4 5 C-3.67 5 -3.34 5 -3 5 C-2.34 9.29 -1.68 13.58 -1 18 C-0.505 9.09 -0.505 9.09 0 0 Z " fill="#D0CDCE" transform="translate(380,234)"/>
<path d="M0 0 C2.31243792 -0.02685412 4.6249627 -0.04632841 6.9375 -0.0625 C8.22527344 -0.07410156 9.51304687 -0.08570313 10.83984375 -0.09765625 C14 0 14 0 15 1 C15.36760731 3.32817964 15.70241581 5.6618385 16 8 C16.66 7.67 17.32 7.34 18 7 C17.76023437 8.00933594 17.76023437 8.00933594 17.515625 9.0390625 C16.02401995 17.60449149 15.94360236 26.23993495 20 34 C19.67 34.99 19.34 35.98 19 37 C18.34 36.01 17.68 35.02 17 34 C17.66 36.97 18.32 39.94 19 43 C13.3499842 37.3499842 11.81276144 29.76960153 11.67456055 21.9440918 C11.71637114 15.25834099 12.17071085 8.63431324 13 2 C8.71 1.67 4.42 1.34 0 1 C0 0.67 0 0.34 0 0 Z " fill="#ABA7A8" transform="translate(260,257)"/>
<path d="M0 0 C0.33 0 0.66 0 1 0 C1.20365597 5.78852933 0.48564115 11.13517636 -0.625 16.8125 C-0.79741211 17.69454102 -0.96982422 18.57658203 -1.14746094 19.48535156 C-2.56696768 26.14497852 -4.73774463 31.6011432 -9 37 C-9.33 36.34 -9.66 35.68 -10 35 C-9.67 34.01 -9.34 33.02 -9 32 C-10.485 32.495 -10.485 32.495 -12 33 C-10.87569359 30.00184957 -9.58949725 27.15500844 -8.125 24.3125 C-4.15035165 16.40769564 -1.41503312 8.75086269 0 0 Z " fill="#C9C7C8" transform="translate(378,259)"/>
<path d="M0 0 C-0.84304687 0.30292969 -1.68609375 0.60585937 -2.5546875 0.91796875 C-4.19824219 1.54638672 -4.19824219 1.54638672 -5.875 2.1875 C-7.51082031 2.79658203 -7.51082031 2.79658203 -9.1796875 3.41796875 C-12.53175155 5.29828169 -12.83563671 6.45603988 -14 10 C-17.4352048 12.29013653 -18.985331 12.17842973 -23 12 C-23 9.8125 -23 9.8125 -22 7 C-16.57197102 2.138867 -7.22253914 -2.41855668 0 0 Z " fill="#EBAEBF" transform="translate(33,99)"/>
<path d="M0 0 C0.66 0.33 1.32 0.66 2 1 C-2.33669954 6.21980927 -6.98087085 11.11528468 -11.75 15.9375 C-12.31678467 16.51717529 -12.88356934 17.09685059 -13.4675293 17.6940918 C-17.64524692 21.88174897 -17.64524692 21.88174897 -21 23 C-19.56246045 19.68997304 -17.77516456 17.56110536 -15.1875 15.0625 C-14.47335938 14.36769531 -13.75921875 13.67289063 -13.0234375 12.95703125 C-12.35570312 12.31121094 -11.68796875 11.66539062 -11 11 C-10.113125 10.0925 -9.22625 9.185 -8.3125 8.25 C-6 6 -6 6 -3.25 3.8125 C-0.92512612 2.19690923 -0.92512612 2.19690923 0 0 Z " fill="#DF7D98" transform="translate(222,130)"/>
<path d="M0 0 C-0.57975346 3.91333589 -2.50663347 6.00796016 -5 9 C-6.37680331 10.97419594 -7.68635877 12.98262239 -9 15 C-9.33 14.34 -9.66 13.68 -10 13 C-9.06553465 10.96855359 -8.06775224 8.96466413 -7 7 C-7.81721717 8.10067996 -8.62859451 9.20569731 -9.4375 10.3125 C-10.11619141 11.23482422 -10.11619141 11.23482422 -10.80859375 12.17578125 C-12.17336308 14.09677101 -12.17336308 14.09677101 -13 17 C-13.66 17 -14.32 17 -15 17 C-13.65846062 11.99971686 -11.51629997 7.80932497 -8 4 C-7.34 4 -6.68 4 -6 4 C-5.67 3.01 -5.34 2.02 -5 1 C-3 0 -3 0 0 0 Z " fill="#D2D0D1" transform="translate(395,172)"/>
<path d="M0 0 C0.33 0 0.66 0 1 0 C1.16898112 5.35810969 0.56511422 10.19349172 -0.5 15.4375 C-0.64308594 16.16904297 -0.78617187 16.90058594 -0.93359375 17.65429688 C-1.28321296 19.43735486 -1.64077688 21.21885203 -2 23 C-2.66 23 -3.32 23 -4 23 C-4.66 24.32 -5.32 25.64 -6 27 C-5.47932155 23.14697946 -4.61165503 19.48562777 -3.5625 15.75 C-2.10524502 10.54245645 -0.980192 5.31610014 0 0 Z " fill="#4D4446" transform="translate(378,259)"/>
<path d="M0 0 C4.55555556 1.55555556 4.55555556 1.55555556 6 3 C6.07226502 4.85287502 6.0838122 6.70833878 6.0625 8.5625 C6.05347656 9.57441406 6.04445313 10.58632812 6.03515625 11.62890625 C6.02355469 12.41136719 6.01195312 13.19382812 6 14 C5.67 14 5.34 14 5 14 C4.67 10.7 4.34 7.4 4 4 C2.68 4 1.36 4 0 4 C-0.99 6.97 -1.98 9.94 -3 13 C-3.33 13 -3.66 13 -4 13 C-4.17673419 8.4932782 -4.13551182 5.03374456 -2 1 C-1.34 0.67 -0.68 0.34 0 0 Z " fill="#EEBBC8" transform="translate(330,62)"/>
<path d="M0 0 C0.66 0.33 1.32 0.66 2 1 C0.42301238 2.63115895 -1.16184366 4.25471333 -2.75 5.875 C-3.63171875 6.77992188 -4.5134375 7.68484375 -5.421875 8.6171875 C-7.61636684 10.64542996 -9.2667136 11.88880413 -12 13 C-11.34 11.68 -10.68 10.36 -10 9 C-9.34 9 -8.68 9 -8 9 C-7.79375 8.443125 -7.5875 7.88625 -7.375 7.3125 C-5.44999226 4.07498698 -2.96149098 2.31768859 0 0 Z " fill="#80797A" transform="translate(49,128)"/>
<path d="M0 0 C0.36923077 5.53846154 0.36923077 5.53846154 -1.5 7.875 C-2.2425 8.431875 -2.2425 8.431875 -3 9 C-2.67 7.35 -2.34 5.7 -2 4 C-2.99 4.33 -3.98 4.66 -5 5 C-3.33333333 0 -3.33333333 0 0 0 Z " fill="#8A8586" transform="translate(371,287)"/>
</svg>
