<?xml version="1.0" encoding="UTF-8"?>
<svg version="1.1" xmlns="http://www.w3.org/2000/svg" width="500" height="500">
<path d="M0 0 C1.87474526 1.37534731 3.74975768 2.7503305 5.625 4.125 C12.92225202 9.61450217 19.93844544 15.44044917 26.94873047 21.28955078 C28.84854579 22.87371005 30.75382185 24.45104251 32.66015625 26.02734375 C38.41646279 30.81340284 43.90415744 35.74473419 49.12109375 41.125 C51.11561657 43.18529867 51.11561657 43.18529867 54.0625 45.4375 C54.701875 45.953125 55.34125 46.46875 56 47 C56 47.66 56 48.32 56 49 C60.43756005 45.90715512 63.30403602 42.15187952 66.44921875 37.828125 C66.96097656 37.22484375 67.47273437 36.6215625 68 36 C68.66 36 69.32 36 70 36 C70.27239502 35.40541992 70.54479004 34.81083984 70.82543945 34.19824219 C71.97029488 32.05559444 73.12644698 30.57993363 74.79296875 28.828125 C75.33727539 28.25006104 75.88158203 27.67199707 76.44238281 27.07641602 C77.01827148 26.47369873 77.59416016 25.87098145 78.1875 25.25 C79.37476027 23.99449334 80.56096766 22.73799016 81.74609375 21.48046875 C82.31312012 20.87895996 82.88014648 20.27745117 83.46435547 19.65771484 C85.29521574 17.68131718 87.02828715 15.63425376 88.75 13.5625 C91.71169502 10.13508389 95.00995353 7.46436438 98.64453125 4.7734375 C100.20248009 3.60045446 101.72300391 2.3758794 103.19921875 1.1015625 C124.52897461 -17.22247225 149.62895979 -21.51657989 177 -20 C182.24096251 -19.36090634 187.08849662 -17.92929401 192 -16 C192.97324219 -15.62617188 193.94648438 -15.25234375 194.94921875 -14.8671875 C215.93913614 -6.02624601 233.92063264 11.06376835 242.6875 32.125 C251.85341434 57.61215537 250.35493512 86.47535656 239 111 C234.59665894 119.7311693 228.80163191 127.02767076 222 134 C221.154375 134.886875 220.30875 135.77375 219.4375 136.6875 C218.633125 137.450625 217.82875 138.21375 217 139 C216.47664063 139.51820313 215.95328125 140.03640625 215.4140625 140.5703125 C207.7437613 147.78751574 198.39566261 152.79028216 188.625 156.5625 C180.74342677 159.71512929 175.47173575 164.04938318 171.81152344 171.7409668 C170.38486746 175.71234096 170.32037087 179.56444467 170.375 183.75 C170.38337891 184.62817383 170.39175781 185.50634766 170.40039062 186.41113281 C170.73868809 196.18217131 174.1389773 203.16487397 180.6875 210.375 C196.59161395 224.89352826 217.66125664 225.69267427 238 225 C252.86804605 223.95923678 268.18517336 217.87626692 278.375 206.625 C279.28371119 205.44181007 280.15783519 204.23144341 281 203 C281.49886719 202.27296875 281.99773437 201.5459375 282.51171875 200.796875 C291.85879242 186.19942997 294.37337695 171.65076994 294.25 154.625 C294.24822754 153.91691193 294.24645508 153.20882385 294.24462891 152.47927856 C294.22004025 144.08686285 293.99058747 135.78029356 293 127.4375 C290.03607514 102.37311942 291.49516914 80.77463991 307.35766602 60.24267578 C309.67472898 57.42408588 311.82246585 54.84501983 315 53 C316.32 53 317.64 53 319 53 C318.39847691 56.56101672 316.99087117 58.50765659 314.6875 61.25 C309.3921223 67.93662764 306.75344027 74.38566454 304.3125 82.5 C303.99031494 83.56831055 303.99031494 83.56831055 303.66162109 84.65820312 C300.87176148 94.35469363 300.84535914 103.71162718 300.875 113.75 C300.87113281 115.04421875 300.86726563 116.3384375 300.86328125 117.671875 C300.87024496 124.57987327 301.15368257 131.35855768 301.79541016 138.234375 C302.11477968 142.55158027 301.98242507 146.8065003 301.75 151.125 C301.70335205 152.02025391 301.6567041 152.91550781 301.60864258 153.83789062 C300.04819964 179.62506443 293.48893096 204.08095596 274 222 C271.10427524 224.51110178 268.15840852 226.83076338 265 229 C264.07960938 229.65613281 263.15921875 230.31226563 262.2109375 230.98828125 C246.67364526 240.72271617 226.80646239 243.12848109 209 239.9375 C197.26627047 237.13444239 187.09288432 230.96976569 179 222 C179 221.34 179 220.68 179 220 C178.34 220 177.68 220 177 220 C168.77477947 209.34367981 164.80189294 198.3703844 164.8125 185.0625 C164.81185547 184.22871826 164.81121094 183.39493652 164.81054688 182.53588867 C164.87213776 175.22127162 165.68410937 168.20215137 167 161 C166.113125 161.16113281 165.22625 161.32226562 164.3125 161.48828125 C140.66195051 165.14184491 117.76674421 155.34872159 98.9375 141.8125 C91.77114397 136.55533059 85.01726387 130.88849421 78.3828125 124.98046875 C75.48163099 122.39901924 72.48732888 119.96768575 69.4375 117.5625 C64.28468171 113.41417456 59.76026769 108.77108633 55.15161133 104.04272461 C50.51849676 99.35682202 45.63147998 95.45155225 40 92 C39.59587891 92.88171875 39.59587891 92.88171875 39.18359375 93.78125 C37.99702607 96.00557489 36.74203141 97.62746621 35.0625 99.5 C34.44246094 100.19480469 33.82242188 100.88960938 33.18359375 101.60546875 C31.1437138 103.84240329 29.08987753 106.06594417 27.03417969 108.28833008 C26.56915039 108.79130615 26.10412109 109.29428223 25.625 109.8125 C25.15352539 110.32127686 24.68205078 110.83005371 24.19628906 111.35424805 C21.08923004 114.73405198 18.17174822 118.21745215 15.3125 121.8125 C11.55088215 126.45491921 7.65464906 130.27316206 3 134 C1.99324219 134.84304688 0.98648438 135.68609375 -0.05078125 136.5546875 C-21.64406337 154.37821017 -46.61782598 163.559469 -74.84765625 161.75390625 C-94.52939732 159.29096412 -109.18439477 150.63822942 -123 137 C-123.79019531 136.29359375 -124.58039063 135.5871875 -125.39453125 134.859375 C-139.840828 121.60217799 -148.85939304 101.47377743 -150 82 C-150.83144612 58.31638312 -146.29899936 31.5427129 -129.5625 13.5625 C-127.73302846 11.68152482 -125.86915896 9.84222583 -124 8 C-123.27039063 7.20078125 -122.54078125 6.4015625 -121.7890625 5.578125 C-107.21083191 -10.13818308 -84.75639936 -19.92568285 -63.50390625 -20.96875 C-39.13979516 -21.18604419 -19.27747113 -15.04793642 0 0 Z M102.4375 15.875 C101.78491211 16.48706299 101.13232422 17.09912598 100.45996094 17.72973633 C96.51959399 21.46024664 92.75362903 25.25836911 89.296875 29.44921875 C88 31 88 31 86.328125 32.58203125 C84.77213112 33.91948013 84.77213112 33.91948013 85 36 C84.34 36 83.68 36 83 36 C83 36.66 83 37.32 83 38 C82.34 38 81.68 38 81 38 C79.46542633 39.51719983 79.46542633 39.51719983 77.875 41.5 C74.64994558 45.31450765 71.21838037 48.79602023 67.6015625 52.23828125 C65.77095443 54.01353029 65.77095443 54.01353029 65 57 C65.9520721 58.00596297 66.91187346 59.00461563 67.875 60 C68.40867188 60.556875 68.94234375 61.11375 69.4921875 61.6875 C70.91824988 63.21885522 70.91824988 63.21885522 73 63 C73 63.66 73 64.32 73 65 C74.61718311 66.4328718 76.29623372 67.79624749 78 69.125 C82.32235094 72.57845325 86.26858382 76.15578965 90.125 80.11328125 C93.25653207 83.2643854 96.62322086 86.11710353 100 89 C100.92296875 89.81210938 101.8459375 90.62421875 102.796875 91.4609375 C119.6793636 106.19953273 142.125002 125.34717627 165.76953125 124.37890625 C183.81965244 122.261782 198.73379633 114.56783723 210.25 100.1875 C221.23636837 84.42175105 225.57342876 66.1993136 222.375 47.30859375 C217.82004781 29.43447332 208.2500338 12.75247061 192.32495117 2.95507812 C160.4552284 -15.63956116 128.35574846 -8.59249975 102.4375 15.875 Z M-102 31 C-102.61488281 31.54527344 -103.22976562 32.09054688 -103.86328125 32.65234375 C-116.3809364 44.44836024 -124.2215509 61.23379363 -125.125 78.37109375 C-125.61692933 98.07901234 -116.66693848 115.39698642 -103.62597656 129.69384766 C-94.63229777 138.86059859 -82.3274766 144.07896182 -70 147 C-69.25234375 147.19078125 -68.5046875 147.3815625 -67.734375 147.578125 C-49.73729312 150.35481763 -32.25611133 146.9338604 -17 137 C-12.30142109 133.38310832 -8.1391518 129.23256002 -4 125 C-1.58424974 122.57730793 0.82706992 120.16358251 3.3125 117.8125 C5.22713951 116.16877727 5.22713951 116.16877727 5 114 C5.66 114 6.32 114 7 114 C8.40062727 112.65404429 8.40062727 112.65404429 9.875 110.8125 C13.17490204 106.9245651 16.58990166 103.17010185 20.0625 99.4375 C27.74426795 91.96396866 27.74426795 91.96396866 33 83 C32.27296875 82.33355469 31.5459375 81.66710937 30.796875 80.98046875 C30.07745728 80.32099243 30.07745728 80.32099243 29.34350586 79.64819336 C28.26622159 78.66069653 27.18890965 77.67322989 26.11157227 76.68579102 C22.88113217 73.72482717 19.65149511 70.76299343 16.4230957 67.79980469 C14.92664824 66.42754884 13.42817978 65.05752223 11.9296875 63.6875 C10.03123917 61.94599007 8.14010895 60.19645508 6.2578125 58.4375 C0.56695355 53.15902214 -5.34361601 48.31578015 -11.53515625 43.6484375 C-14.66562895 41.27967419 -17.70793501 38.81324096 -20.74780273 36.32983398 C-45.13127104 16.47012053 -76.14848369 7.84864207 -102 31 Z " fill="#6D283A" transform="translate(175,162)"/>
<path d="M0 0 C3.13892365 3.13892365 2.43424472 6.6226176 2.44042969 10.90209961 C2.20853547 19.77416165 -1.45136481 28.11203907 -7 35 C-7.66 35 -8.32 35 -9 35 C-9.23847656 35.58910156 -9.47695313 36.17820313 -9.72265625 36.78515625 C-13.97041795 44.15054122 -24.45293975 47.96549951 -32 51 C-32.70382812 51.29777344 -33.40765625 51.59554687 -34.1328125 51.90234375 C-46.21624837 56.51977837 -60.23017427 56.30775315 -72.96875 56.265625 C-74.46106021 56.26698104 -75.95336997 56.26892922 -77.44567871 56.27142334 C-80.55839282 56.27434531 -83.67099098 56.27018262 -86.78369141 56.26074219 C-90.66682213 56.2495068 -94.54967401 56.25603205 -98.43279457 56.26760292 C-126.88341754 56.33984877 -154.94627921 54.77429787 -183.22729492 51.51251221 C-237.93924226 45.27255112 -295.43483964 39.11681928 -350.42480469 45.69238281 C-353.10601928 46.01266442 -355.79002156 46.28307907 -358.4765625 46.5546875 C-373.03751851 48.17619807 -386.32903327 52.31619586 -399.26245117 59.22583008 C-401.56739983 60.25280664 -403.51557565 60.31055304 -406 60 C-405.74255056 56.91060675 -405.35437996 55.3657383 -403.171875 53.11328125 C-398.56604979 50.04462184 -393.61914057 48.32607582 -388.4375 46.4375 C-387.41591797 46.05142578 -386.39433594 45.66535156 -385.34179688 45.26757812 C-363.26491605 37.09147147 -339.43610487 34.35011921 -316 34 C-314.77893555 33.97421875 -313.55787109 33.9484375 -312.29980469 33.921875 C-280.44387455 33.2771298 -248.5627672 35.10562888 -216.96875 39.24609375 C-198.39465822 41.66236383 -179.68165267 43.1341796 -160.99487305 44.35375977 C-159.91375244 44.42522217 -158.83263184 44.49668457 -157.71875 44.5703125 C-156.77966797 44.62977051 -155.84058594 44.68922852 -154.87304688 44.75048828 C-152.76632867 44.93344766 -150.66582224 45.19207674 -148.57275391 45.4934082 C-110.29332074 50.92116711 -58.04595853 54.96129179 -24 34 C-22.98257483 33.01773424 -21.97412276 32.02522429 -21 31 C-20.34 31 -19.68 31 -19 31 C-18.58041016 30.12408203 -18.58041016 30.12408203 -18.15234375 29.23046875 C-17 27 -17 27 -15.81640625 25.23828125 C-11.98285273 19.35061183 -10.94269918 13.51872282 -9.98852539 6.67700195 C-9.71538964 4.77571276 -9.36414476 2.88597517 -9 1 C-5.98675805 -0.50662097 -3.31713623 -0.17770373 0 0 Z " fill="#E1567B" transform="translate(418,79)"/>
<path d="M0 0 C-0.60152309 3.56101672 -2.00912883 5.50765659 -4.3125 8.25 C-9.6078777 14.93662764 -12.24655973 21.38566454 -14.6875 29.5 C-15.00968506 30.56831055 -15.00968506 30.56831055 -15.33837891 31.65820312 C-18.12823852 41.35469363 -18.15464086 50.71162718 -18.125 60.75 C-18.12886719 62.04421875 -18.13273438 63.3384375 -18.13671875 64.671875 C-18.12975504 71.57987327 -17.84631743 78.35855768 -17.20458984 85.234375 C-16.88522032 89.55158027 -17.01757493 93.8065003 -17.25 98.125 C-17.29664795 99.02025391 -17.3432959 99.91550781 -17.39135742 100.83789062 C-18.95180036 126.62506443 -25.51106904 151.08095596 -45 169 C-47.89572476 171.51110178 -50.84159148 173.83076338 -54 176 C-54.92039062 176.65613281 -55.84078125 177.31226563 -56.7890625 177.98828125 C-72.32635474 187.72271617 -92.19353761 190.12848109 -110 186.9375 C-121.73372953 184.13444239 -131.90711568 177.96976569 -140 169 C-140 168.34 -140 167.68 -140 167 C-140.66 167 -141.32 167 -142 167 C-149.49758403 159.27139797 -152.365311 144.76657154 -152.4855957 134.44921875 C-152.4173989 130.62188936 -152.25599871 126.81966323 -152 123 C-151.67 123 -151.34 123 -151 123 C-150.96036133 123.56396484 -150.92072266 124.12792969 -150.87988281 124.70898438 C-150.68727411 127.30760566 -150.46880965 129.90345877 -150.25 132.5 C-150.188125 133.386875 -150.12625 134.27375 -150.0625 135.1875 C-149.44588693 142.1757815 -147.85406704 147.77418474 -143.140625 153.1015625 C-142.51671875 153.60429687 -141.8928125 154.10703125 -141.25 154.625 C-140.55390625 155.19089844 -139.8578125 155.75679687 -139.140625 156.33984375 C-138.43421875 156.88769531 -137.7278125 157.43554688 -137 158 C-136.00226563 158.80630859 -136.00226563 158.80630859 -134.984375 159.62890625 C-118.20461349 172.80828586 -97.57448406 173.16021388 -77.09375 171.7265625 C-63.70072796 170.00367374 -49.80289333 163.75892389 -40.625 153.625 C-39.71628881 152.44181007 -38.84216481 151.23144341 -38 150 C-37.50113281 149.27296875 -37.00226563 148.5459375 -36.48828125 147.796875 C-27.14120758 133.19942997 -24.62662305 118.65076994 -24.75 101.625 C-24.75177246 100.91691193 -24.75354492 100.20882385 -24.75537109 99.47927856 C-24.77995975 91.08686285 -25.00941253 82.78029356 -26 74.4375 C-28.96392486 49.37311942 -27.50483086 27.77463991 -11.64233398 7.24267578 C-5.68838666 0 -5.68838666 0 0 0 Z " fill="#272727" transform="translate(494,215)"/>
<path d="M0 0 C-0.60152309 3.56101672 -2.00912883 5.50765659 -4.3125 8.25 C-9.6078777 14.93662764 -12.24655973 21.38566454 -14.6875 29.5 C-14.90229004 30.21220703 -15.11708008 30.92441406 -15.33837891 31.65820312 C-18.12823852 41.35469363 -18.15464086 50.71162718 -18.125 60.75 C-18.12886719 62.04421875 -18.13273437 63.3384375 -18.13671875 64.671875 C-18.12975504 71.57987327 -17.84631743 78.35855768 -17.20458984 85.234375 C-16.88522032 89.55158027 -17.01757493 93.8065003 -17.25 98.125 C-17.29664795 99.02025391 -17.3432959 99.91550781 -17.39135742 100.83789062 C-18.40886158 117.65270384 -21.61126415 133.49342134 -29.0625 148.6875 C-29.4030542 149.38375488 -29.7436084 150.08000977 -30.09448242 150.79736328 C-31.79219307 154.12171954 -32.83778333 155.89185556 -36 158 C-34.66511872 154.40608886 -33.03977277 151.24509304 -31 148 C-31.33 147.67 -31.66 147.34 -32 147 C-33.175625 148.2065625 -33.175625 148.2065625 -34.375 149.4375 C-37 152 -37 152 -39 153 C-37.91728468 149.8502827 -36.53527016 147.24260225 -34.6875 144.5 C-26.19510196 131.18351787 -24.63838409 117.02777029 -24.75 101.625 C-24.75177246 100.91691193 -24.75354492 100.20882385 -24.75537109 99.47927856 C-24.77995975 91.08686285 -25.00941253 82.78029356 -26 74.4375 C-28.96392486 49.37311942 -27.50483086 27.77463991 -11.64233398 7.24267578 C-5.68838666 0 -5.68838666 0 0 0 Z " fill="#292929" transform="translate(494,215)"/>
<path d="M0 0 C0.33 0 0.66 0 1 0 C3.33388939 14.59247345 3.61756781 29.2499326 4 44 C4.78238115 39.08018688 5.1761227 34.3064924 5.31640625 29.31640625 C5.33718735 28.61603745 5.35796844 27.91566864 5.37937927 27.19407654 C5.44412465 24.98363894 5.50340608 22.77309515 5.5625 20.5625 C5.60575681 19.05272393 5.64937323 17.54295812 5.69335938 16.03320312 C5.79972748 12.35557804 5.90120002 8.67783709 6 5 C6.33 5 6.66 5 7 5 C10.25829135 29.21161113 6.69364785 55.75425835 -4.0625 77.6875 C-4.4030542 78.38375488 -4.7436084 79.08000977 -5.09448242 79.79736328 C-6.79219307 83.12171954 -7.83778333 84.89185556 -11 87 C-9.66511872 83.40608886 -8.03977277 80.24509304 -6 77 C-6.33 76.67 -6.66 76.34 -7 76 C-7.78375 76.804375 -8.5675 77.60875 -9.375 78.4375 C-12 81 -12 81 -14 82 C-12.91728468 78.8502827 -11.53527016 76.24260225 -9.6875 73.5 C-2.19241725 61.74735545 0.34361397 48.67513432 0.1953125 34.9609375 C0.1924826 33.95406891 0.18965271 32.94720032 0.18673706 31.90982056 C0.17564829 28.73141999 0.15056543 25.55331368 0.125 22.375 C0.11495557 20.20443119 0.1058323 18.0338579 0.09765625 15.86328125 C0.07574616 10.57542245 0.04238336 5.28773226 0 0 Z " fill="#D6D6D6" transform="translate(469,286)"/>
<path d="M0 0 C-0.60152309 3.56101672 -2.00912883 5.50765659 -4.3125 8.25 C-11.21290126 16.94928387 -13.88745542 26.48878387 -17 37 C-19.41052408 29.76842775 -14.90662756 21.18656317 -11.6875 14.625 C-9.01737076 9.48926205 -6.44727946 5.68798784 -2 2 C-7.24972347 6.10037573 -11.20962911 10.52964787 -15 16 C-15.33 15.34 -15.66 14.68 -16 14 C-6.72900763 0 -6.72900763 0 0 0 Z " fill="#E7E7E7" transform="translate(494,215)"/>
<path d="M0 0 C0.66 0.33 1.32 0.66 2 1 C1.45730469 1.58007812 0.91460937 2.16015625 0.35546875 2.7578125 C-4.22896505 7.73078464 -4.22896505 7.73078464 -7.6875 13.5 C-8.120625 14.325 -8.55375 15.15 -9 16 C-10.66014616 16.36442233 -12.32706064 16.69972883 -14 17 C-15.08615441 19.18918668 -15.08615441 19.18918668 -16 22 C-16.62068359 23.670625 -16.62068359 23.670625 -17.25390625 25.375 C-17.90166016 27.169375 -17.90166016 27.169375 -18.5625 29 C-19.21412109 30.794375 -19.21412109 30.794375 -19.87890625 32.625 C-20.81091713 35.43077492 -21.50968494 38.0911646 -22 41 C-22.33 41 -22.66 41 -23 41 C-22.46121654 28.33858873 -18.076731 18.86564423 -9 10 C-7.16094726 7.94201241 -5.35316688 5.85965915 -3.55078125 3.76953125 C-2.41306678 2.47133312 -1.2205967 1.2205967 0 0 Z " fill="#8A8A8A" transform="translate(491,216)"/>
<path d="M0 0 C-0.39803561 2.88575819 -0.79009069 3.82189513 -3.0625 5.75 C-3.701875 6.1625 -4.34125 6.575 -5 7 C-4.34 5.68 -3.68 4.36 -3 3 C-8.04395895 6.51548654 -11.37975847 11.11736877 -15 16 C-15.33 15.34 -15.66 14.68 -16 14 C-6.72900763 0 -6.72900763 0 0 0 Z " fill="#F7F7F7" transform="translate(494,215)"/>
<path d="M0 0 C-7.92 3.96 -7.92 3.96 -16 8 C-16 8.66 -16 9.32 -16 10 C-15.34 10.66 -14.68 11.32 -14 12 C-15.65 12 -17.3 12 -19 12 C-18.73339601 8.80075206 -18.28552552 7.30394652 -16.0625 4.9375 C-5.4084507 -1.8028169 -5.4084507 -1.8028169 0 0 Z " fill="#FCEEF1" transform="translate(31,127)"/>
<path d="M0 0 C3.25207092 1.41738489 5.31361067 3.12526412 7.75 5.6875 C11.64632149 9.69368018 15.74597855 13.37955621 20 17 C15.78773475 17 14.02396665 14.62438852 11.125 11.875 C10.34962891 11.1634375 10.34962891 11.1634375 9.55859375 10.4375 C6.06020154 7.17703371 2.99637238 3.72611621 0 0 Z " fill="#F7D1DC" transform="translate(229,264)"/>
<path d="M0 0 C3.12378018 6.24756036 0.94877317 11.63400764 -1 18 C-1.66 17.67 -2.32 17.34 -3 17 C-2.01 11.39 -1.02 5.78 0 0 Z " fill="#444444" transform="translate(471,330)"/>
<path d="M0 0 C0 1.66666667 0 3.33333333 0 5 C0.66 5.66 1.32 6.32 2 7 C0.35 7 -1.3 7 -3 7 C-2.25 2.25 -2.25 2.25 0 0 Z " fill="#FEFBFC" transform="translate(15,132)"/>
</svg>
