<?xml version="1.0" encoding="UTF-8"?>
<svg version="1.1" xmlns="http://www.w3.org/2000/svg" width="500" height="500">
<path d="M0 0 C165 0 330 0 500 0 C500 165 500 330 500 500 C335 500 170 500 0 500 C0 335 0 170 0 0 Z " fill="#FEFEFE" transform="translate(0,0)"/>
<path d="M0 0 C1.26279785 -0.00942627 2.5255957 -0.01885254 3.82666016 -0.02856445 C29.37273281 0.05973226 55.77400049 7.69635901 74.875 25.25 C85.977253 36.45376361 92.91986813 49.44826677 93.07495117 65.43676758 C93.05721023 68.37654671 92.98335902 71.31226664 92.875 74.25 C88.95919607 73.60335348 85.59614479 72.39751296 81.9375 70.875 C61.16157414 62.80327205 40.44495875 63.66941117 20.10375977 72.28393555 C-16.84906545 88.85545364 -44.26457838 125.27593429 -58.71484375 162.24609375 C-63.61845243 175.48645438 -65.91448663 189.34719078 -68.125 203.25 C-68.24061279 203.9625293 -68.35622559 204.67505859 -68.4753418 205.40917969 C-71.14535882 223.83585718 -69.69559402 244.00405613 -64.7109375 261.89453125 C-64.125 264.25 -64.125 264.25 -64.125 267.25 C-56.2136864 269.76032066 -48.20759558 271.84872151 -40.13476562 273.76367188 C-38.29722005 274.20832576 -36.46831769 274.68831505 -34.640625 275.171875 C-17.15426139 279.36543731 1.78830451 278.83783421 18.875 273.25 C19.54821289 273.03569336 20.22142578 272.82138672 20.91503906 272.60058594 C35.12880075 267.97488519 47.58448598 261.11849177 58.875 251.25 C59.59867264 250.78026764 60.32234528 250.31053528 61.06794739 249.8265686 C65.0321444 246.96597488 67.51148689 244.80555197 68.64881897 239.93865967 C68.86726976 235.83217761 68.80850663 231.81602992 68.6484375 227.7109375 C68.62395076 226.18330238 68.6039896 224.6555888 68.58828735 223.12783813 C68.53708754 219.10710427 68.4346489 215.08943971 68.31811523 211.07012939 C68.11923339 203.93087726 68.00662874 196.78954595 67.8984375 189.6484375 C67.87901848 188.50047668 67.87901848 188.50047668 67.85920715 187.32932472 C67.66247402 174.72352779 68.58339422 162.6660053 70.875 150.25 C71.32232306 147.59189146 71.76145369 144.93251286 72.20002747 142.27294922 C74.17541547 130.83611159 77.46697129 119.84817708 81.04199219 108.82226562 C81.78544201 106.52654836 82.50965682 104.22598156 83.2265625 101.921875 C85.8477487 93.70318794 89.02155941 85.96563901 92.875 78.25 C93.36226563 77.26362549 93.36226563 77.26362549 93.859375 76.25732422 C105.95111579 51.94412714 123.02190966 28.38781263 149.59375 18.92578125 C169.09673454 13.04803449 189.2284806 15.85106942 207.27734375 24.96875 C220.55170032 32.67134929 229.24426845 42.66090076 235.875 56.25 C236.33003906 57.17683594 236.78507812 58.10367188 237.25390625 59.05859375 C240.50910566 66.69186624 240.38997517 74.08553604 239.875 82.25 C239.83101074 83.01038574 239.78702148 83.77077148 239.74169922 84.55419922 C238.49032469 104.41926684 234.87074196 124.26784749 228.875 143.25 C228.59914063 144.24 228.32328125 145.23 228.0390625 146.25 C219.18792648 177.37529337 207.18657318 208.40937532 190.20043945 236.0234375 C186.45927788 242.30809279 186.94531237 246.06770732 187.875 253.25 C187.96523438 254.16265625 188.05546875 255.0753125 188.1484375 256.015625 C190.67372817 277.00359636 197.18883134 300.29494341 214.1015625 314.0625 C227.31841686 323.40303311 242.64122818 324.82899412 258.35546875 322.80078125 C260.87970643 322.34034462 263.37873705 321.84233358 265.875 321.25 C262.16497768 328.52055657 258.10252117 334.98374892 252.875 341.25 C252.10929687 342.21550781 251.34359375 343.18101562 250.5546875 344.17578125 C239.44183276 357.44975914 222.2848149 365.76277188 205.875 370.25 C204.84761719 370.54777344 203.82023437 370.84554688 202.76171875 371.15234375 C178.07620201 377.44700548 151.61592765 372.34506218 129.71704102 359.97680664 C122.91814492 355.92238858 117.43414814 350.8611028 111.875 345.25 C111.19179688 344.5796875 110.50859375 343.909375 109.8046875 343.21875 C108.479049 341.91160878 107.17326736 340.58433034 105.875 339.25 C102.41059492 340.55324501 99.14857073 342.10379592 95.86694336 343.81274414 C45.94259121 369.68142971 -11.95339919 379.14531521 -66.22558594 361.95214844 C-85.8898332 355.45230824 -103.6737736 345.78525437 -120.125 333.25 C-121.00414063 332.58355469 -121.88328125 331.91710937 -122.7890625 331.23046875 C-158.46910535 303.42268932 -178.9730168 265.09326392 -185 220.375 C-186.18456005 210.61343875 -186.58529206 201.06647061 -186.125 191.25 C-186.08246094 190.23921387 -186.03992188 189.22842773 -185.99609375 188.18701172 C-183.83293126 141.10356144 -165.28409941 99.62110096 -133.125 65.25 C-132.30128906 64.32445313 -131.47757813 63.39890625 -130.62890625 62.4453125 C-125.74178881 56.95567373 -120.77904314 51.93623395 -115.125 47.25 C-114.25488281 46.49203125 -113.38476562 45.7340625 -112.48828125 44.953125 C-104.79979457 38.34246356 -96.71246831 32.63417034 -88.125 27.25 C-87.02671875 26.56035156 -85.9284375 25.87070313 -84.796875 25.16015625 C-75.4146171 19.5463645 -65.50772284 15.36277274 -55.41650391 11.20239258 C-53.42299653 10.37385302 -51.44262377 9.51384818 -49.46484375 8.6484375 C-33.21467605 1.84427372 -17.50857017 0.09124343 0 0 Z " fill="#D53163" transform="translate(218.125,51.75)"/>
<path d="M0 0 C0.33 0 0.66 0 1 0 C1.14695313 0.6290625 1.29390625 1.258125 1.4453125 1.90625 C3.73796321 10.65521594 7.63566454 16.99591842 15.25390625 22.03515625 C17.73464454 23.40594452 20.26999198 24.26755883 23 25 C22.67 27.97 22.34 30.94 22 34 C19.9890625 34.5878125 19.9890625 34.5878125 17.9375 35.1875 C11.43433291 37.40634789 6.73735287 39.92272499 3.5 46.1875 C0.9563288 52.7878882 1.88299527 58.99682258 4.6875 65.375 C7.22789184 69.87512269 10.36578407 72.24983049 15.38671875 73.6796875 C17.58504014 74.18354138 19.77653269 74.62448108 22 75 C24.42293925 83.55155029 24.42293925 83.55155029 23 87 C21.27479999 88.00907925 19.54503353 89.01266636 17.77734375 89.9453125 C12.91411402 92.83118509 10.77755555 97.8450889 9 103 C8.21310773 110.08203047 10.54921261 116.84743334 14 123 C15.78228936 124.14209817 15.78228936 124.14209817 18 125 C18.845625 125.53625 19.69125 126.0725 20.5625 126.625 C26.36912637 128.94765055 32.94451077 129.12327564 38.8125 126.75 C42.03065604 124.98316923 45.00498267 123.11842689 48 121 C50.20391753 123.05622623 51.73526858 125.03053617 53.19921875 127.66015625 C53.59939209 128.36624023 53.99956543 129.07232422 54.41186523 129.79980469 C54.83282471 130.54649414 55.25378418 131.29318359 55.6875 132.0625 C59.62787324 138.89104873 63.84050305 145.02183749 69 151 C69.85406672 152.044833 70.70546806 153.09184843 71.5546875 154.140625 C95.25645394 183.18836676 130.53434697 203.03585715 166.75 211.8125 C167.95305786 212.10483521 167.95305786 212.10483521 169.18041992 212.40307617 C181.95718809 215.31698581 194.66767355 216.35299494 207.75 216.25 C208.44455292 216.24723053 209.13910583 216.24446106 209.85470581 216.24160767 C220.99503424 216.18971941 231.9815902 215.73064028 243 214 C244.81564453 213.72542969 244.81564453 213.72542969 246.66796875 213.4453125 C270.84610621 209.17392944 294.61330041 199.93676928 316.18139648 188.33618164 C319.5025307 186.57836484 321.1252287 186 325 186 C327.08932433 187.92563083 328.96904898 189.84435736 330.875 191.9375 C347.99408372 209.83893365 371.53806019 218.64785932 396.10327148 219.34326172 C417.75593069 219.60918951 438.29294242 213.65910763 456 201 C457.35544922 200.03320312 457.35544922 200.03320312 458.73828125 199.046875 C469.03178028 191.18479653 477.39963367 180.69579266 483 169 C482.195625 169.2165625 482.195625 169.2165625 481.375 169.4375 C468.85203852 172.40346456 452.78570515 172.82160911 441 167 C439.9164936 163.7494808 440.1298746 163.12774807 441 160 C441.75092302 152.31747986 440.37126838 146.25202521 435.8125 140 C435.214375 139.34 434.61625 138.68 434 138 C435.50441815 133.68804092 437.77412796 130.11766781 440.3515625 126.38671875 C440.97990494 125.46509697 440.97990494 125.46509697 441.62094116 124.52485657 C442.95115564 122.57596907 444.28795317 120.6317047 445.625 118.6875 C446.53168948 117.36162855 447.43794422 116.0354597 448.34375 114.70898438 C450.55748267 111.46919211 452.77712798 108.23352768 455 105 C455.67546875 105.21221191 456.3509375 105.42442383 457.046875 105.64306641 C457.93890625 105.91812012 458.8309375 106.19317383 459.75 106.4765625 C460.63171875 106.75064941 461.5134375 107.02473633 462.421875 107.30712891 C470.02258249 109.34981904 478.03263826 107.81171419 484.86328125 103.9453125 C486.26308999 102.9935815 487.63393425 101.9995603 489 101 C490.485 100.505 490.485 100.505 492 100 C493.11942582 98.16295122 493.11942582 98.16295122 494 96 C494.34160156 95.35160156 494.68320312 94.70320313 495.03515625 94.03515625 C496.94155629 90.37457822 498.48096277 87.1522978 499 83 C499.33 83 499.66 83 500 83 C500 152.96 500 222.92 500 295 C335 295 170 295 0 295 C0 197.65 0 100.3 0 0 Z " fill="#FEFEFE" transform="translate(0,205)"/>
<path d="M0 0 C1.26279785 -0.00942627 2.5255957 -0.01885254 3.82666016 -0.02856445 C29.37273281 0.05973226 55.77400049 7.69635901 74.875 25.25 C85.977253 36.45376361 92.91986813 49.44826677 93.07495117 65.43676758 C93.05721023 68.37654671 92.98335902 71.31226664 92.875 74.25 C88.95919607 73.60335348 85.59614479 72.39751296 81.9375 70.875 C61.16157414 62.80327205 40.44495875 63.66941117 20.10375977 72.28393555 C-16.84906545 88.85545364 -44.26457838 125.27593429 -58.71484375 162.24609375 C-63.61845243 175.48645438 -65.91448663 189.34719078 -68.125 203.25 C-68.24061279 203.9625293 -68.35622559 204.67505859 -68.4753418 205.40917969 C-71.14535882 223.83585718 -69.69559402 244.00405613 -64.7109375 261.89453125 C-64.125 264.25 -64.125 264.25 -64.125 267.25 C-63.465 267.58 -62.805 267.91 -62.125 268.25 C-61.76330462 270.2450658 -61.4347415 272.24621076 -61.125 274.25 C-56.44358779 287.88799837 -49.15587011 300.08313278 -40.125 311.25 C-39.15240234 312.45462891 -39.15240234 312.45462891 -38.16015625 313.68359375 C-22.19313457 332.52402628 1.16700429 345.19814484 24.875 351.25 C25.92558594 351.53617187 26.97617188 351.82234375 28.05859375 352.1171875 C40.77789386 355.14902975 53.86239197 354.99334945 66.875 355.25 C62.49760773 358.81697219 57.90718886 360.08020115 52.5625 361.6875 C51.55155273 361.99316895 50.54060547 362.29883789 49.49902344 362.61376953 C0.81449608 376.81279629 -52.43504036 372.8640342 -97.125 348.5 C-105.22792162 343.97232461 -112.74765968 338.87127316 -120.125 333.25 C-121.00414063 332.58355469 -121.88328125 331.91710937 -122.7890625 331.23046875 C-158.46910535 303.42268932 -178.9730168 265.09326392 -185 220.375 C-186.18456005 210.61343875 -186.58529206 201.06647061 -186.125 191.25 C-186.08246094 190.23921387 -186.03992188 189.22842773 -185.99609375 188.18701172 C-183.83293126 141.10356144 -165.28409941 99.62110096 -133.125 65.25 C-132.30128906 64.32445313 -131.47757813 63.39890625 -130.62890625 62.4453125 C-125.74178881 56.95567373 -120.77904314 51.93623395 -115.125 47.25 C-114.25488281 46.49203125 -113.38476562 45.7340625 -112.48828125 44.953125 C-104.79979457 38.34246356 -96.71246831 32.63417034 -88.125 27.25 C-87.02671875 26.56035156 -85.9284375 25.87070313 -84.796875 25.16015625 C-75.4146171 19.5463645 -65.50772284 15.36277274 -55.41650391 11.20239258 C-53.42299653 10.37385302 -51.44262377 9.51384818 -49.46484375 8.6484375 C-33.21467605 1.84427372 -17.50857017 0.09124343 0 0 Z " fill="#D43163" transform="translate(218.125,51.75)"/>
<path d="M0 0 C-0.52268466 2.76276177 -1.10869587 5.3260876 -2 8 C-1.01 9.485 -1.01 9.485 0 11 C0.09601112 13.34183654 -0.06529828 15.60406469 -0.22265625 17.94140625 C-0.14917969 18.62074219 -0.07570313 19.30007812 0 20 C0.99 20.66 1.98 21.32 3 22 C1.53415008 26.91334771 0.06028313 31.8234344 -1.46484375 36.71875 C-7.17674094 55.16859876 -11.19887703 73.88385187 -14 93 C-14.18522217 94.26046143 -14.37044434 95.52092285 -14.5612793 96.81958008 C-15.24330562 103.16187236 -15.01206976 109.52010097 -14.89177322 115.8865242 C-14.82232762 119.819928 -14.78725646 123.75371686 -14.74609375 127.6875 C-14.69214409 132.66943931 -14.62800454 137.65060908 -14.52685547 142.63183594 C-14.44552065 146.68173245 -14.39876145 150.73075729 -14.37479782 154.78138351 C-14.35942489 156.31645831 -14.33150358 157.85146357 -14.29045486 159.38606644 C-13.97989438 171.33319905 -13.97989438 171.33319905 -16.49848938 175.44845581 C-18.24240696 177.2194172 -19.94902341 178.60628349 -22 180 C-23.46759766 181.26457031 -23.46759766 181.26457031 -24.96484375 182.5546875 C-38.17952055 192.86942866 -51.91995682 200.20237399 -68 205 C-69.09054688 205.3403125 -70.18109375 205.680625 -71.3046875 206.03125 C-95.33223438 212.37593231 -125.90745856 208.04627072 -148 197 C-156.10965212 174.15992508 -156.1702742 147.81392359 -151.453125 124.27392578 C-150.99138024 121.95674332 -150.57220713 119.63439106 -150.15625 117.30859375 C-145.36097319 91.53729988 -134.56421547 68.98046637 -119 48 C-118.319375 47.07445312 -117.63875 46.14890625 -116.9375 45.1953125 C-98.32649712 21.27726584 -72.08621128 -1.46585018 -40.93359375 -5.609375 C-26.40731323 -7.05190534 -13.70710798 -4.75465308 0 0 Z " fill="#FAF7FA" transform="translate(302,122)"/>
<path d="M0 0 C0.10022461 0.6077124 0.20044922 1.2154248 0.30371094 1.84155273 C5.85686732 35.26437663 14.21780803 66.52415724 35 94 C33.96314095 97.27009392 32.88730877 98.06892213 29.90234375 99.89453125 C28.58860294 100.54988152 27.26625926 101.18816216 25.9375 101.8125 C25.2170752 102.15216797 24.49665039 102.49183594 23.75439453 102.84179688 C22.24251307 103.54902543 20.72813532 104.25093975 19.21142578 104.94775391 C17.16518623 105.92140068 15.19618813 106.97614317 13.21484375 108.07421875 C-6.29641718 118.24798365 -31.76023532 114.29774496 -52 108 C-52.73347656 107.77538086 -53.46695313 107.55076172 -54.22265625 107.31933594 C-83.83734587 97.9522587 -108.82462228 76.96370611 -124 50 C-126.54559017 45.09618846 -128.81684277 40.0738751 -131 35 C-131.39316406 34.11441406 -131.78632813 33.22882813 -132.19140625 32.31640625 C-133 30 -133 30 -133 26 C-128.10949955 27.04796438 -123.2538046 28.17823489 -118.40844727 29.41992188 C-115.61852409 30.1300476 -112.82264923 30.81496358 -110.02587891 31.49755859 C-108.18300391 31.95461291 -106.34689401 32.43873026 -104.51171875 32.92578125 C-87.01979804 37.10561734 -68.09062076 36.58911789 -51 31 C-50.32678711 30.78569336 -49.65357422 30.57138672 -48.95996094 30.35058594 C-30.85016759 24.45696773 -16.87773778 14.56571102 -2.93359375 1.6875 C-1 0 -1 0 0 0 Z " fill="#783E96" transform="translate(288,294)"/>
<path d="M0 0 C1.32 0.33 2.64 0.66 4 1 C4.09796875 1.72445312 4.1959375 2.44890625 4.296875 3.1953125 C5.18924695 8.9649587 5.90899512 13.58602105 10 18 C14.82710868 21.26013876 19.22400794 22.29629047 25 23 C25.02505615 23.63502441 25.0501123 24.27004883 25.07592773 24.92431641 C25.19256789 27.82471542 25.31498393 30.72484349 25.4375 33.625 C25.47681641 34.62402344 25.51613281 35.62304688 25.55664062 36.65234375 C25.76617396 41.51996419 26.09486198 46.2034812 27 51 C28.13167733 60.04055868 28.13167733 60.04055868 25.89453125 63.9140625 C24.05610322 65.82965911 22.11165596 67.38828908 20 69 C19.07703125 69.76957031 18.1540625 70.53914063 17.203125 71.33203125 C4.23510679 81.97229743 -9.96097872 89.21461324 -26 94 C-27.09054688 94.3403125 -28.18109375 94.680625 -29.3046875 95.03125 C-53.33223438 101.37593231 -83.90745856 97.04627072 -106 86 C-106.81103661 83.59945004 -107.49835322 81.26106426 -108.125 78.8125 C-108.39763672 77.8215332 -108.39763672 77.8215332 -108.67578125 76.81054688 C-109.73301891 72.78429971 -110.1938984 69.15588903 -110 65 C-107.69 65.33 -105.38 65.66 -103 66 C-101.39553069 63.91689914 -99.79141482 61.83352773 -98.1875 59.75 C-97.50977539 58.87021484 -97.50977539 58.87021484 -96.81835938 57.97265625 C-95.93717514 56.82775995 -95.05955273 55.68011203 -94.18579102 54.52954102 C-93.21916137 53.28269426 -92.19874191 52.07770079 -91.1640625 50.88671875 C-89.63395507 48.40671242 -89.88292663 46.92725528 -90.1875 44.0625 C-90.33529802 39.51435173 -90.33529802 39.51435173 -88.8515625 37.23828125 C-86.46559051 35.12481875 -84.47782488 34.05556103 -81.3125 33.6875 C-80.549375 33.790625 -79.78625 33.89375 -79 34 C-78.01 34 -77.02 34 -76 34 C-74.97895449 34.97850195 -73.9793879 35.97980427 -73 37 C-69.75881216 38.08039595 -67.11996467 37.95081582 -63.74047852 37.8840332 C-53.3922075 37.84553285 -53.3922075 37.84553285 -49.140625 41.37109375 C-47.16385133 44.16904595 -45.5561273 46.95240443 -44 50 C-43.02787474 51.35379107 -42.03775486 52.69583643 -41 54 C-36.73745622 52.47697874 -35.1805009 49.6649911 -32.8125 45.9375 C-29.01986755 40.01986755 -29.01986755 40.01986755 -28 39 C-24.29188188 38.76137749 -20.59033243 38.60451374 -16.87695312 38.48242188 C-12.27633924 38.2830494 -8.26868962 37.9142405 -4 36 C-2.61141128 33.57114212 -2.61141128 33.57114212 -2 31 C-1.67 30.34 -1.34 29.68 -1 29 C-0.84530633 26.82325217 -0.74997894 24.6421652 -0.68359375 22.4609375 C-0.64169922 21.15898437 -0.59980469 19.85703125 -0.55664062 18.515625 C-0.51682701 17.13541955 -0.47711478 15.75521117 -0.4375 14.375 C-0.39430593 12.98696585 -0.35069135 11.59894472 -0.30664062 10.2109375 C-0.20028 6.80739744 -0.09825286 3.40378222 0 0 Z " fill="#F6EEF4" transform="translate(260,233)"/>
<path d="M0 0 C2.475 0.495 2.475 0.495 5 1 C5 3.97 5 6.94 5 10 C5.74572266 9.97381592 6.49144531 9.94763184 7.25976562 9.9206543 C10.67295858 9.81604449 14.08581328 9.75147031 17.5 9.6875 C18.67304688 9.64560547 19.84609375 9.60371094 21.0546875 9.56054688 C27.45604018 9.47064024 32.08458482 9.74881009 37.43164062 13.42895508 C41.03684105 17.04032879 42.37458168 20.35669248 42.40405273 25.41357422 C42.41673691 26.47172333 42.42942108 27.52987244 42.44248962 28.62008667 C42.43955399 29.75350494 42.43661835 30.88692322 42.43359375 32.0546875 C42.4388356 33.22959747 42.44407745 34.40450745 42.44947815 35.61502075 C42.45589578 38.09799409 42.45456475 40.58099783 42.44604492 43.06396484 C42.4375462 46.85439511 42.46628474 50.64331272 42.49804688 54.43359375 C42.49965932 56.84895788 42.49908053 59.26432468 42.49609375 61.6796875 C42.50732773 62.80905731 42.51856171 63.93842712 42.53013611 65.10202026 C42.47273401 71.61541733 41.94774814 75.73408176 38 81 C33.77074901 84.04970556 30.55861066 84.15436639 25.57861328 83.90844727 C18.48124149 83.51750495 18.48124149 83.51750495 12.25683594 86.40820312 C9.71237646 89.37099733 7.82465097 92.56296178 5.9453125 95.97265625 C4.98238281 97.47119141 4.98238281 97.47119141 4 99 C2.68 99 1.36 99 0 99 C-2.0703125 96.69921875 -2.0703125 96.69921875 -4.125 93.6875 C-5.14980469 92.20830078 -5.14980469 92.20830078 -6.1953125 90.69921875 C-7.46487546 88.80037026 -8.7329725 86.90054125 -10 85 C-12.98795224 84.69324084 -15.82042933 84.53295751 -18.8125 84.5 C-28.70010022 84.38952402 -28.70010022 84.38952402 -33 81 C-36.69974546 76.786401 -38.11856898 74.47156043 -38.17700195 68.91113281 C-38.18983719 67.84952942 -38.20267242 66.78792603 -38.21589661 65.69415283 C-38.22328354 64.54211365 -38.23067047 63.39007446 -38.23828125 62.203125 C-38.246353 61.02159851 -38.25442474 59.84007202 -38.26274109 58.6227417 C-38.2765917 56.11765006 -38.28730946 53.61253948 -38.29516602 51.10742188 C-38.31236706 47.27958279 -38.35624487 43.45260976 -38.40039062 39.625 C-38.4105183 37.19271469 -38.41903417 34.76042203 -38.42578125 32.328125 C-38.44328934 31.18418274 -38.46079742 30.04024048 -38.47883606 28.8616333 C-38.46176568 22.59371967 -38.28249186 18.72296565 -34 14 C-27.70839453 8.89915476 -21.39183021 9.52789134 -13.5625 9.75 C-11.74975586 9.77707031 -11.74975586 9.77707031 -9.90039062 9.8046875 C-6.93276816 9.85160643 -3.96680339 9.91724398 -1 10 C-1.020625 8.72125 -1.04125 7.4425 -1.0625 6.125 C-1.125 2.25 -1.125 2.25 0 0 Z " fill="#C5316F" transform="translate(218,188)"/>
<path d="M0 0 C0.8316176 24.90232698 -3.51447157 50.30127463 -11 74 C-11.27585937 74.99 -11.55171875 75.98 -11.8359375 77 C-20.68707352 108.12529337 -32.68842682 139.15937532 -49.67456055 166.7734375 C-50.887305 168.81068735 -51.97074292 170.86533482 -53 173 C-69.46743795 148.29884308 -54.76629607 83.28331421 -49.57763672 56.84814453 C-48.24590671 50.29840922 -46.42955075 44.21121204 -44 38 C-43.75145264 37.35804688 -43.50290527 36.71609375 -43.24682617 36.0546875 C-37.64582032 21.84831873 -30.21520263 9.20924081 -16.8125 1.0625 C-11.21578866 -0.49723923 -5.77157855 -0.23433477 0 0 Z " fill="#3A2365" transform="translate(458,121)"/>
<path d="M0 0 C1.35561778 4.06685335 -0.13928659 6.56317843 -1.625 10.375 C-8.56944319 29.33178307 -11.15270439 47.86710098 -12 68 C-12.03996094 68.85223145 -12.07992187 69.70446289 -12.12109375 70.58251953 C-13.17014662 95.58669471 -8.45252407 122.20080646 1.90332031 145.00146484 C2.64926091 146.64711814 3.33154182 148.32137979 4 150 C2.69533665 152.60932671 1.10800318 153.45015173 -1.3125 155.0625 C-2.09238281 155.58972656 -2.87226562 156.11695313 -3.67578125 156.66015625 C-9.04129051 159.75321453 -14.95710314 159.48308042 -21 159 C-27.02984787 156.87838686 -31.6543656 152.41674141 -35 147 C-37.49341997 140.04467062 -38.02057283 134.71214687 -34.9375 127.9375 C-31.92873375 122.31427875 -28.13584728 118.04528243 -22 116 C-22.33 112.37 -22.66 108.74 -23 105 C-24.340625 104.938125 -25.68125 104.87625 -27.0625 104.8125 C-32.13599363 104.22218785 -35.45756636 102.69885279 -39 99 C-42.85131715 93.73224098 -44.55849523 87.4961814 -44 81 C-42.17412298 74.99819373 -39.28640712 70.24337162 -33.9140625 66.89453125 C-30.68395807 65.38495183 -27.49674849 64.67481111 -24 64 C-23.34 61.03 -22.68 58.06 -22 55 C-22.825 54.95875 -23.65 54.9175 -24.5 54.875 C-31.55245173 53.11188707 -36.65105449 48.05724494 -40.74609375 42.19921875 C-44.97686715 34.77889032 -46.38211944 26.52066916 -44.30859375 18.23828125 C-41.30454553 9.02502876 -36.95213588 3.41476394 -28.296875 -1 C-18.56190107 -5.238356 -9.4488007 -4.88787441 0 0 Z " fill="#F6EEF4" transform="translate(45,175)"/>
<path d="M0 0 C4.8918068 1.04824431 9.74832303 2.18070185 14.59570312 3.41967773 C28.19478932 7.25707694 28.19478932 7.25707694 42.07641602 9.04614258 C44.19140625 9.125 44.19140625 9.125 48 10 C49.79313661 12.57111122 50.81354709 14.46862722 51.9375 17.3125 C55.4234412 25.12885166 59.50953143 31.38055986 65 38 C65.68191406 38.82242188 66.36382812 39.64484375 67.06640625 40.4921875 C84.19768173 60.40603805 107.91558855 74.11731623 131 86 C131 86.33 131 86.66 131 87 C113.61728459 87.62094774 97.69594268 87.12517115 81 82 C80.26362305 81.77538086 79.52724609 81.55076172 78.76855469 81.31933594 C49.15863032 71.94945199 24.17325728 50.9599385 9 24 C6.45440983 19.09618846 4.18315723 14.0738751 2 9 C1.60683594 8.11441406 1.21367187 7.22882813 0.80859375 6.31640625 C0 4 0 4 0 0 Z " fill="#392264" transform="translate(155,320)"/>
<path d="M0 0 C7.12539829 4.97932136 10.9837843 10.99328923 13.3203125 19.27734375 C14.38037713 27.9698737 13.29778769 36.08168195 8.5078125 43.58984375 C2.60652332 51.05893812 -6.17038625 54.85659956 -15.42578125 56.12109375 C-19.42226916 56.31408311 -22.8074057 55.50069697 -26.6171875 54.31640625 C-27.50921875 54.04135254 -28.40125 53.76629883 -29.3203125 53.48291016 C-30.33351563 53.16459229 -30.33351563 53.16459229 -31.3671875 52.83984375 C-31.75986816 53.42886475 -32.15254883 54.01788574 -32.55712891 54.62475586 C-38.82714844 64.02978516 -45.09716797 73.43481445 -51.3671875 82.83984375 C-49.79894227 86.0066266 -48.09203805 89.03254473 -46.26953125 92.05859375 C-43.06897078 98.37658326 -43.99057411 106.12885349 -45.3671875 112.83984375 C-57.65383032 108.50338158 -64.92426956 99.21740742 -70.3671875 87.83984375 C-70.70878906 87.12957031 -71.05039062 86.41929687 -71.40234375 85.6875 C-72.67317239 82.89167699 -73.3671875 80.94431897 -73.3671875 77.83984375 C-67.18927298 77.61920395 -63.79437096 78.23304788 -57.3671875 79.83984375 C-50.7671875 69.93984375 -44.1671875 60.03984375 -37.3671875 49.83984375 C-39.11459988 46.34501899 -41.0222187 43.19813433 -43.1484375 39.9375 C-47.44320955 32.54553657 -47.71699228 24.11382325 -45.609375 15.87890625 C-42.32759353 7.27392018 -37.38751005 2.26529681 -29.3671875 -2.16015625 C-19.31229926 -6.1629854 -9.34715949 -5.29672371 0 0 Z " fill="#F7EEF4" transform="translate(486.3671875,258.16015625)"/>
<path d="M0 0 C1.32 0.33 2.64 0.66 4 1 C4.14695312 2.08667969 4.14695312 2.08667969 4.296875 3.1953125 C5.18924695 8.9649587 5.90899512 13.58602105 10 18 C14.82710868 21.26013876 19.22400794 22.29629047 25 23 C25.02505615 23.63502441 25.0501123 24.27004883 25.07592773 24.92431641 C25.19256789 27.82471542 25.31498393 30.72484349 25.4375 33.625 C25.47681641 34.62402344 25.51613281 35.62304688 25.55664062 36.65234375 C25.76617396 41.51996419 26.09486198 46.2034812 27 51 C28.13167733 60.04055868 28.13167733 60.04055868 25.89453125 63.9140625 C24.05610322 65.82965911 22.11165596 67.38828908 20 69 C19.07703125 69.76957031 18.1540625 70.53914063 17.203125 71.33203125 C-2.98140138 87.89344641 -27.66178504 98.08074742 -54 97 C-44.49338088 76.5864882 -44.49338088 76.5864882 -39 67 C-38.2265625 67.03480469 -37.453125 67.06960938 -36.65625 67.10546875 C-28.60174428 67.31480615 -22.70434681 67.03082921 -16.25 61.75 C-10.89594673 55.20615712 -8.83242721 49.78261509 -9.2578125 41.375 C-9 39 -9 39 -7.6171875 37.1875 C-6 36 -6 36 -4 36 C-3.690625 35.21625 -3.38125 34.4325 -3.0625 33.625 C-2 31 -2 31 -1 29 C-0.84530633 26.82325217 -0.74997894 24.6421652 -0.68359375 22.4609375 C-0.62075195 20.50800781 -0.62075195 20.50800781 -0.55664062 18.515625 C-0.51682701 17.13541955 -0.47711478 15.75521117 -0.4375 14.375 C-0.39430593 12.98696585 -0.35069135 11.59894472 -0.30664062 10.2109375 C-0.20028 6.80739744 -0.09825286 3.40378222 0 0 Z " fill="#FEFDFE" transform="translate(260,233)"/>
<path d="M0 0 C1.11503906 0.01289063 2.23007813 0.02578125 3.37890625 0.0390625 C5.11720703 0.08933594 5.11720703 0.08933594 6.890625 0.140625 C8.65212891 0.16769531 8.65212891 0.16769531 10.44921875 0.1953125 C13.3471784 0.2424338 16.24348918 0.30821195 19.140625 0.390625 C19.470625 2.370625 19.800625 4.350625 20.140625 6.390625 C22.780625 6.390625 25.420625 6.390625 28.140625 6.390625 C28.470625 4.410625 28.800625 2.430625 29.140625 0.390625 C33.2025807 0.21606161 37.26357087 0.1096808 41.328125 0.015625 C42.47861328 -0.03464844 43.62910156 -0.08492187 44.81445312 -0.13671875 C46.48217773 -0.16572266 46.48217773 -0.16572266 48.18359375 -0.1953125 C49.20477295 -0.2267334 50.22595215 -0.2581543 51.27807617 -0.29052734 C54.60237593 0.50050006 56.17660395 1.80725321 58.20365906 4.55215454 C59.9135223 7.9071677 59.75548498 11.15705832 59.62890625 14.8515625 C59.62387085 15.55321533 59.61883545 16.25486816 59.61364746 16.9777832 C59.58768097 19.57415201 59.51787403 22.1699338 59.453125 24.765625 C59.35 30.581875 59.246875 36.398125 59.140625 42.390625 C36.370625 42.390625 13.600625 42.390625 -9.859375 42.390625 C-9.941875 36.203125 -10.024375 30.015625 -10.109375 23.640625 C-10.14579102 21.69317383 -10.18220703 19.74572266 -10.21972656 17.73925781 C-10.2314121 16.19076642 -10.24160425 14.64226272 -10.25 13.09375 C-10.27046387 12.29372559 -10.29092773 11.49370117 -10.31201172 10.66943359 C-10.31422142 7.14495859 -10.16225229 4.85082725 -8.20117188 1.87109375 C-5.25105387 0.00604834 -3.47650565 -0.07094909 0 0 Z " fill="#F4E8F1" transform="translate(195.859375,203.609375)"/>
<path d="M0 0 C4.2107125 1.63355352 6.98539535 4.76223005 10.0625 7.9375 C10.59166016 8.47568359 11.12082031 9.01386719 11.66601562 9.56835938 C13.1142685 11.04205208 14.55734739 12.52082454 16 14 C16.56517334 14.51506104 17.13034668 15.03012207 17.71264648 15.56079102 C18.13747314 16.03572998 18.5622998 16.51066895 19 17 C18.79375 17.61875 18.5875 18.2375 18.375 18.875 C18.189375 19.926875 18.189375 19.926875 18 21 C18.804375 21.70125 19.60875 22.4025 20.4375 23.125 C23.68116364 26.76423237 23.72637995 28.87735736 23.5 33.6171875 C22.7388288 37.24464402 20.95140609 38.8918528 18 41 C17.34 41 16.68 41 16 41 C16.05194909 44.25129636 16.147037 47.49995065 16.25 50.75 C16.26417969 51.67039062 16.27835937 52.59078125 16.29296875 53.5390625 C16.37854906 58.93383999 16.37854906 58.93383999 19.01953125 63.453125 C19.67308594 63.96359375 20.32664062 64.4740625 21 65 C21.49366687 68.38514427 21.37766945 70.26453845 19.8125 73.3125 C17.49886098 75.46657771 16.14813112 75.85008899 13 76 C9.18736653 74.93600927 8.24988993 74.3748349 6 71 C5.855625 69.96875 5.71125 68.9375 5.5625 67.875 C4.1667187 62.75347175 0.05899653 59.82551698 -3.9765625 56.6796875 C-8.01445641 54.43641311 -10.43791645 54.7129854 -14.8359375 55.6484375 C-17 56 -17 56 -20 54.75 C-22.32639455 52.71440477 -23.83425881 51.02913716 -24.3359375 47.9140625 C-24.43063199 42.3649652 -23.63385912 40.3152077 -20 36 C-19.48955044 31.32087905 -19.68552792 27.14676247 -22 23 C-25.39601815 21.81437257 -25.39601815 21.81437257 -27.82421875 21.43359375 C-31.12414107 20.77597907 -33.94924504 19.39826269 -37 18 C-34.5972756 16.39818373 -32.67301463 15.36671778 -30.04296875 14.30078125 C-29.26614746 13.98181885 -28.48932617 13.66285645 -27.68896484 13.33422852 C-26.86348145 12.99705811 -26.03799805 12.6598877 -25.1875 12.3125 C-11.73830947 7.52759943 -11.73830947 7.52759943 0 0 Z " fill="#F9EDF2" transform="translate(322,390)"/>
<path d="M0 0 C-0.5793082 8.28098242 -2.15379041 16.26432457 -3.875 24.375 C-4.13152344 25.6125 -4.38804687 26.85 -4.65234375 28.125 C-9.00069936 48.88348154 -9.00069936 48.88348154 -12.22265625 57.00097656 C-13.10828276 59.2784608 -13.88485165 61.57979892 -14.65625 63.8984375 C-21.58725086 84.56821387 -29.82742683 104.70417353 -40 124 C-40.33 124 -40.66 124 -41 124 C-41.58910612 93.1701129 -40.06508149 60.08933373 -29 31 C-28.61070312 29.92234375 -28.22140625 28.8446875 -27.8203125 27.734375 C-23.62382812 16.81803001 -17.44978108 8.01408169 -8 1 C-5.07175348 0.02391783 -3.04386724 -0.08226668 0 0 Z " fill="#753F97" transform="translate(456,150)"/>
<path d="M0 0 C2.59369317 3.1744549 4.9999924 6.38635206 7.25 9.8125 C8.03117187 10.99779297 8.03117187 10.99779297 8.828125 12.20703125 C9.21484375 12.79871094 9.6015625 13.39039063 10 14 C10.74636719 13.84015625 11.49273437 13.6803125 12.26171875 13.515625 C18.89850198 12.26590262 25.13105481 12.46223264 31 16 C36.47465319 20.96913512 39.94912386 25.77780957 40.375 33.25 C40.1930177 39.32618695 38.51794061 44.62636824 34.0234375 48.86328125 C26.81867912 54.35199718 21.07580443 54.81754681 12 54 C9.91796875 53.03515625 9.91796875 53.03515625 8.4375 51.875 C7.633125 51.25625 6.82875 50.6375 6 50 C2.41469425 51.03774581 -0.23471877 52.73676983 -3.13671875 55.0390625 C-3.87857422 55.61914062 -4.62042969 56.19921875 -5.38476562 56.796875 C-6.14466797 57.40015625 -6.90457031 58.0034375 -7.6875 58.625 C-9.2088182 59.82985351 -10.73339923 61.03060242 -12.26171875 62.2265625 C-12.93162842 62.75846191 -13.60153809 63.29036133 -14.29174805 63.83837891 C-16 65 -16 65 -18 65 C-17.67 65.66 -17.34 66.32 -17 67 C-16.62179878 71.5384146 -16.55253757 74.04914234 -18.5 78.1875 C-21.59065416 81.66448593 -24.94898397 83.77784072 -29 86 C-27.75782718 82.13160992 -26.37210465 78.4194791 -24.71484375 74.7109375 C-15.34269611 53.38092908 -8.27168669 31.60361337 -2.375 9.0625 C-2.14554687 8.18787109 -1.91609375 7.31324219 -1.6796875 6.41210938 C-1.11911236 4.27491664 -0.55923201 2.13754451 0 0 Z " fill="#F5EEF5" transform="translate(451,176)"/>
<path d="M0 0 C2.5815425 0.05954642 5.12257915 0.24151502 7.69384766 0.47851562 C9.03286133 0.57712891 9.03286133 0.57712891 10.39892578 0.67773438 C12.60353751 0.84278552 14.80481668 1.02702279 17.00634766 1.22851562 C17.26702026 2.12364868 17.26702026 2.12364868 17.53295898 3.03686523 C18.96620188 7.67947951 20.25804905 11.22556424 23.69384766 14.79101562 C24.79801432 15.93684896 25.90218099 17.08268229 27.00634766 18.22851562 C12.79151086 48.44335242 12.79151086 48.44335242 11.00634766 50.22851562 C3.93299048 51.14654709 -3.11349647 49.90224065 -10.05615234 48.60351562 C-10.90161621 48.46341064 -11.74708008 48.32330566 -12.61816406 48.17895508 C-14.90830922 47.71392155 -16.88807265 47.24355487 -18.99365234 46.22851562 C-20.46240234 43.40039062 -20.46240234 43.40039062 -20.99365234 40.22851562 C-21.23986328 39.3596875 -21.48607422 38.49085938 -21.73974609 37.59570312 C-22.20184034 35.93007528 -22.66015719 34.26339499 -23.11474609 32.59570312 C-23.88240186 30.14313288 -23.88240186 30.14313288 -25.65380859 28.17382812 C-26.99365234 26.22851562 -26.99365234 26.22851562 -26.7277832 24.34570312 C-25.38606735 20.47627848 -22.88273992 17.39292438 -20.49365234 14.10351562 C-19.75501953 13.01103516 -19.75501953 13.01103516 -19.00146484 11.89648438 C-16.11263845 7.92984712 -14.19508528 5.89739928 -9.27490234 4.98632812 C-8.50122314 4.87981934 -7.72754395 4.77331055 -6.93041992 4.66357422 C-4.75872803 4.40742312 -4.75872803 4.40742312 -3.53662109 2.08789062 C-1.99365234 0.22851562 -1.99365234 0.22851562 0 0 Z " fill="#FEFEFE" transform="translate(188.99365234375,278.771484375)"/>
<path d="M0 0 C1.58062933 2.37094399 2.82690436 4.5786394 4.0625 7.125 C5.25879048 9.75473826 5.25879048 9.75473826 7 12 C7.33333333 14.33333333 7.66666667 16.66666667 8 19 C9.01293065 20.24555797 9.01293065 20.24555797 11.109375 20.02734375 C12.85947804 19.96779882 14.60948434 19.90533367 16.359375 19.83984375 C19.26928631 20.01633245 21.36438606 20.79122023 24 22 C24.06058594 22.86882812 24.12117188 23.73765625 24.18359375 24.6328125 C24.26738281 25.78523438 24.35117188 26.93765625 24.4375 28.125 C24.51871094 29.26195312 24.59992188 30.39890625 24.68359375 31.5703125 C24.97730965 34.7540478 25.43124313 37.85510907 26 41 C25.113125 40.9175 24.22625 40.835 23.3125 40.75 C19.96982811 40.80109614 19.96982811 40.80109614 17.125 42.375 C14.76813634 44.6968225 14.76813634 44.6968225 15.078125 47 C15.17609375 47.78375 15.2740625 48.5675 15.375 49.375 C15.86400011 57.01704827 10.00892171 62.12339645 5.27880859 67.51855469 C3.75861718 69.27963172 2.36114961 71.11390191 1 73 C-5.875 71.125 -5.875 71.125 -7 70 C-9.42531878 53.05741597 -8.66824939 35.70977526 -5.37597656 18.95654297 C-4.84841584 16.21117177 -4.43730841 13.44847257 -4 10.6875 C-3.25936838 6.65796187 -2.09151888 3.51755449 0 0 Z " fill="#FEFDFE" transform="translate(156,227)"/>
<path d="M0 0 C22.44 0 44.88 0 68 0 C68 12 68 12 66.11328125 14.75 C61.71911881 16.51428103 57.86094417 16.17164784 53.1875 16 C46.92245323 15.84739249 46.92245323 15.84739249 41.32177734 18.20751953 C38.48662929 21.41009121 36.83213563 25.18017006 35 29 C34.34 29 33.68 29 33 29 C32.59007812 28.14535156 32.18015625 27.29070312 31.7578125 26.41015625 C29.1639339 21.07215213 29.1639339 21.07215213 25 17 C20.75417014 15.89551359 16.50472013 15.98422823 12.14697266 16.18579102 C7.89958722 16.35033374 5.63544287 16.37074145 1.88671875 14.18359375 C0 11 0 11 0 0 Z " fill="#FEFEFE" transform="translate(186,251)"/>
<path d="M0 0 C5.42447495 -0.458945 10.59192196 -0.73597836 16 0 C18.2039766 1.92417488 18.9902811 3.47595868 20.12890625 6.140625 C20.89191524 8.29377995 20.89191524 8.29377995 23.625 9.1875 C26.03421337 9.20257998 26.03421337 9.20257998 27.75 7.75 C29.19299384 5.91116157 29.19299384 5.91116157 30 3 C34.90696232 3.58416218 37.30988363 4.65494181 42 7 C42 11.95 42 16.9 42 22 C23.85 22 5.7 22 -13 22 C-11.02 19.69 -9.04 17.38 -7 15 C-3.41111549 10.28318036 -1.64860192 5.62023383 0 0 Z " fill="#FEFEFE" transform="translate(212,223)"/>
<path d="M0 0 C4.57290204 2.1043443 8.20550988 4.75822574 11 9 C11.57243935 12.4197029 11.43479681 15.56993626 11 19 C10.071875 19.4125 9.14375 19.825 8.1875 20.25 C4.28171095 22.38224137 4.28171095 22.38224137 2 26 C1.48008115 30.07206795 1.48008115 30.07206795 2 34 C4.17574416 36.69105198 5.91065856 38.45532928 9 40 C9 46.6 9 53.2 9 60 C6.36 58.02 3.72 56.04 1 54 C-0.155 53.21625 -1.31 52.4325 -2.5 51.625 C-5.19277927 48.79758177 -5.33018424 48.55247271 -5.25 44.9375 C-5.1675 43.638125 -5.085 42.33875 -5 41 C-5.40869252 38.68250878 -5.40869252 38.68250878 -7 37 C-8.155 36.525625 -9.31 36.05125 -10.5 35.5625 C-12.37890625 34.61328125 -12.37890625 34.61328125 -14 33 C-15.23149353 28.70843162 -15.68525152 24.4450194 -16 20 C-14.948125 19.505 -13.89625 19.01 -12.8125 18.5 C-8.39851097 15.97516246 -6.08007477 12.58321559 -4 8 C-3.63079809 6.00630969 -3.28674418 4.00720923 -3 2 C-2.01 1.34 -1.02 0.68 0 0 Z " fill="#FEFDFE" transform="translate(323,391)"/>
<path d="M0 0 C1.32 0.66 2.64 1.32 4 2 C4 3.65 4 5.3 4 7 C5.258125 6.814375 6.51625 6.62875 7.8125 6.4375 C10.82744268 5.99267239 12.00468461 6.00156154 15 7 C14.67 25.81 14.34 44.62 14 64 C13.67 64 13.34 64 13 64 C13 56.74 13 49.48 13 42 C10.69 42 8.38 42 6 42 C0.77552163 40.40684561 -3.1055006 37.6757298 -6 33 C-7.76095245 28.73664144 -8.45182491 24.56812572 -9 20 C-9.99 19.67 -10.98 19.34 -12 19 C-12 16.69 -12 14.38 -12 12 C-10.02 12.66 -8.04 13.32 -6 14 C-3.98227529 12.32663364 -3.08431057 11.41856841 -2.55859375 8.80859375 C-2.51863281 8.02613281 -2.47867187 7.24367187 -2.4375 6.4375 C-2.20833333 2.20833333 -2.20833333 2.20833333 0 0 Z " fill="#F4E3EC" transform="translate(272,214)"/>
<path d="M0 0 C4.02163211 2.33894085 6.98939376 5.63384099 9.625 9.4375 C9.625 9.7675 9.625 10.0975 9.625 10.4375 C8.77905273 10.38867676 8.77905273 10.38867676 7.91601562 10.33886719 C-2.53814957 9.46075837 -2.53814957 9.46075837 -12.07519531 12.66259766 C-14.90152643 15.85690842 -16.5478739 19.62811445 -18.375 23.4375 C-19.035 23.4375 -19.695 23.4375 -20.375 23.4375 C-20.78492188 22.58285156 -21.19484375 21.72820312 -21.6171875 20.84765625 C-24.21330263 15.51106406 -24.21330263 15.51106406 -28.375 11.4375 C-34.80077524 9.60175634 -41.76198437 10.05583453 -48.375 10.4375 C-48.375 10.1075 -48.375 9.7775 -48.375 9.4375 C-47.13363281 9.43492187 -45.89226562 9.43234375 -44.61328125 9.4296875 C-42.97131844 9.39215692 -41.32939203 9.35300929 -39.6875 9.3125 C-38.87087891 9.31507813 -38.05425781 9.31765625 -37.21289062 9.3203125 C-32.67066035 9.24913073 -32.67066035 9.24913073 -28.82006836 7.12744141 C-27.61048867 5.6110019 -26.48953127 4.0251057 -25.375 2.4375 C-18.19448832 -2.71703237 -8.05854758 -3.55932025 0 0 Z " fill="#F5EAF1" transform="translate(239.375,256.5625)"/>
<path d="M0 0 C2.97 0 5.94 0 9 0 C9.33 1.98 9.66 3.96 10 6 C12.64 6 15.28 6 18 6 C18.33 4.02 18.66 2.04 19 0 C23.0830942 -0.11614929 27.16576377 -0.18723457 31.25 -0.25 C32.40886719 -0.28351563 33.56773437 -0.31703125 34.76171875 -0.3515625 C35.87675781 -0.36445313 36.99179688 -0.37734375 38.140625 -0.390625 C39.16704102 -0.41157227 40.19345703 -0.43251953 41.25097656 -0.45410156 C44.74637738 0.12329147 45.89955195 1.1895065 48 4 C48.2906124 6.89449949 48.38186045 9.37949935 48.25 12.25 C48.23195312 12.99507812 48.21390625 13.74015625 48.1953125 14.5078125 C48.14835649 16.33909701 48.07661652 18.16971649 48 20 C40.73907328 18.06375288 40.73907328 18.06375288 38.6484375 15.0546875 C37.98310839 13.63768886 37.36030658 12.19966071 36.7890625 10.7421875 C36.13134938 8.80307107 36.13134938 8.80307107 34 8 C30.62642666 7.49929679 30.62642666 7.49929679 27 8 C26.28070313 8.81597656 25.56140625 9.63195312 24.8203125 10.47265625 C20.99355812 13.90189459 18.15964195 13.77499013 13.1875 13.8125 C12.00510742 13.85020508 12.00510742 13.85020508 10.79882812 13.88867188 C8.86641627 13.94722981 6.93315673 13.97655488 5 14 C4.35366725 12.22934889 3.7079517 10.45847247 3.0625 8.6875 C2.70285156 7.70136719 2.34320313 6.71523437 1.97265625 5.69921875 C1.29114035 3.8079437 0.6357189 1.90715671 0 0 Z " fill="#FEFDFD" transform="translate(206,204)"/>
<path d="M0 0 C4.90039841 5.88047809 4.90039841 5.88047809 6 9 C5.1015625 10.6484375 5.1015625 10.6484375 3.625 12.375 C-0.31337589 18.03641534 0.41068053 24.37436538 1 31 C1.33 31.99 1.66 32.98 2 34 C0.10775143 35.60856218 -1.78856025 37.21186966 -3.6875 38.8125 C-4.21794922 39.26431641 -4.74839844 39.71613281 -5.29492188 40.18164062 C-8.38523306 42.77901874 -11.47498949 45.03148764 -15 47 C-13.58833424 40.12518775 -11.6799745 33.54262076 -9.5 26.875 C-8.88446061 24.97687227 -8.26985558 23.07844125 -7.65625 21.1796875 C-7.2228833 19.84127808 -7.2228833 19.84127808 -6.78076172 18.47583008 C-6.11623323 16.36858073 -5.49934635 14.25912077 -4.9140625 12.12890625 C-4.08746208 9.29938944 -3.10825799 6.73455897 -1.875 4.0625 C-1.34519531 2.90427734 -1.34519531 2.90427734 -0.8046875 1.72265625 C-0.40636719 0.86994141 -0.40636719 0.86994141 0 0 Z " fill="#F9F7FA" transform="translate(450,186)"/>
<path d="M0 0 C0.15255984 5.84370508 -0.36194932 11.19956219 -1.4375 16.9375 C-1.57220703 17.70384766 -1.70691406 18.47019531 -1.84570312 19.25976562 C-2.86314597 24.86314597 -2.86314597 24.86314597 -4 26 C-5.33069996 26.13366406 -6.66506603 26.23138422 -8 26.3125 C-13.19759807 26.81307124 -17.38200752 28.65279342 -22 31 C-21.54479516 25.29655115 -19.23275361 21.60340359 -16.1875 16.9375 C-15.74857422 16.24333984 -15.30964844 15.54917969 -14.85742188 14.83398438 C-5.37663224 0 -5.37663224 0 0 0 Z " fill="#FEFAFC" transform="translate(189,168)"/>
<path d="M0 0 C0.97366516 -0.00570007 1.94733032 -0.01140015 2.95050049 -0.01727295 C4.99758846 -0.02665556 7.04469108 -0.03322983 9.09179688 -0.03710938 C12.18126442 -0.04680639 15.27006314 -0.07789157 18.359375 -0.109375 C28.12436466 -0.16057141 37.10119771 0.0912374 46.60058594 2.50830078 C51.15705893 3.61817087 55.59451678 3.69917932 60.2734375 3.81835938 C65.26055049 4.01055049 65.26055049 4.01055049 67.453125 6.203125 C64.483125 6.203125 61.513125 6.203125 58.453125 6.203125 C58.123125 6.863125 57.793125 7.523125 57.453125 8.203125 C56.47472656 7.92597656 55.49632812 7.64882813 54.48828125 7.36328125 C53.16416211 6.99703553 51.83993757 6.63117069 50.515625 6.265625 C49.87560547 6.08322266 49.23558594 5.90082031 48.57617188 5.71289062 C38.84446788 3.04998655 29.12353632 2.97778485 19.078125 2.953125 C18.419263 2.95112091 17.760401 2.94911682 17.08157349 2.947052 C5.04009335 2.93810683 -6.45751676 4.04541384 -18.1796875 6.828125 C-21.01917199 7.27794432 -23.50503163 7.07513211 -26.359375 6.765625 C-27.33519531 6.66378906 -28.31101563 6.56195313 -29.31640625 6.45703125 C-30.05246094 6.37324219 -30.78851563 6.28945313 -31.546875 6.203125 C-21.97145854 -0.18048597 -11.11656542 0.05187878 0 0 Z " fill="#DBD2DC" transform="translate(199.546875,49.796875)"/>
<path d="M0 0 C5.40402913 5.26181784 7.56162343 8.51560604 8.1796875 15.9921875 C7.8812809 20.98725446 5.61695338 24.82555188 3 29 C2.01 29 1.02 29 0 29 C-0.50612064 26.1259578 -1.00506541 23.25097127 -1.5 20.375 C-1.64308594 19.56675781 -1.78617187 18.75851562 -1.93359375 17.92578125 C-4.02143003 5.69702588 -4.02143003 5.69702588 0 0 Z " fill="#F6EAF1" transform="translate(407,289)"/>
<path d="M0 0 C2.0625 0.4375 2.0625 0.4375 4 1 C4.01981934 1.71655762 4.03963867 2.43311523 4.06005859 3.17138672 C4.15509519 6.4063063 4.26486019 9.64056094 4.375 12.875 C4.4059375 14.00292969 4.436875 15.13085938 4.46875 16.29296875 C4.50742188 17.36933594 4.54609375 18.44570312 4.5859375 19.5546875 C4.6173584 20.54968262 4.6487793 21.54467773 4.68115234 22.56982422 C4.77247083 25.17854517 4.77247083 25.17854517 7 27 C7.25 29.5 7.25 29.5 7 32 C5 34 5 34 2 34.25 C-1 34 -1 34 -3 32 C-3.1875 29.4375 -3.1875 29.4375 -3 27 C-2.67 26.67 -2.34 26.34 -2 26 C-1.85427264 24.15962866 -1.77272082 22.31409286 -1.71875 20.46875 C-1.68136719 19.34855469 -1.64398438 18.22835937 -1.60546875 17.07421875 C-1.57066406 15.89472656 -1.53585938 14.71523437 -1.5 13.5 C-1.43145099 11.17695034 -1.35876469 8.85401778 -1.28125 6.53125 C-1.25095703 5.49548828 -1.22066406 4.45972656 -1.18945312 3.39257812 C-1 1 -1 1 0 0 Z " fill="#C42D6C" transform="translate(166,214)"/>
<path d="M0 0 C0.99 0.33 1.98 0.66 3 1 C3 8.92 3 16.84 3 25 C3.66 25 4.32 25 5 25 C5.625 28.375 5.625 28.375 6 32 C4 34 4 34 0.875 34.125 C-0.07375 34.08375 -1.0225 34.0425 -2 34 C-4.12057072 30.50729528 -4.12057072 30.50729528 -3.57397461 28.20751953 C-3.38456299 27.47903809 -3.19515137 26.75055664 -3 26 C-2.87738766 24.14546683 -2.79965584 22.28770634 -2.75390625 20.4296875 C-2.72103516 19.36878906 -2.68816406 18.30789062 -2.65429688 17.21484375 C-2.59288724 14.98057814 -2.53562369 12.74619487 -2.48242188 10.51171875 C-2.44826172 9.45339844 -2.41410156 8.39507812 -2.37890625 7.3046875 C-2.3538501 6.33515137 -2.32879395 5.36561523 -2.30297852 4.36669922 C-2 2 -2 2 0 0 Z " fill="#C42E6D" transform="translate(272,214)"/>
<path d="M0 0 C1.26166992 -0.00918457 2.52333984 -0.01836914 3.82324219 -0.02783203 C24.55958278 0.03972185 24.55958278 0.03972185 30.875 4.25 C10.085 4.25 -10.705 4.25 -32.125 4.25 C-25.65593219 -2.21906781 -8.34349789 0.03378349 0 0 Z " fill="#AA2665" transform="translate(218.125,51.75)"/>
<path d="M0 0 C0.33 0 0.66 0 1 0 C1.103125 1.03125 1.20625 2.0625 1.3125 3.125 C1.78884416 6.96691474 1.78884416 6.96691474 3.5625 9.9375 C5.34127547 13.72706512 5.71359562 16.92339524 5 21 C3.78431144 24.15969504 2.4272103 27.5727897 0 30 C-0.23287008 31.68183948 -0.41264166 33.3712416 -0.5625 35.0625 C-0.64628906 35.98160156 -0.73007813 36.90070313 -0.81640625 37.84765625 C-0.87699219 38.55792969 -0.93757812 39.26820313 -1 40 C-1.33 40 -1.66 40 -2 40 C-2.41277905 13.24874212 -2.41277905 13.24874212 0 0 Z " fill="#F5DFE8" transform="translate(150,248)"/>
<path d="M0 0 C2.78088172 3.31935484 3.54533896 5.54999193 3.33984375 9.98046875 C2.61640227 14.27954056 0.42691566 16.96793695 -3.046875 19.48046875 C-5.00203877 20.71804582 -6.97161169 21.88734039 -9 23 C-7.39306847 17.91949932 -5.42353736 13.03815871 -3.375 8.125 C-3.05015625 7.34125 -2.7253125 6.5575 -2.390625 5.75 C-1.59559238 3.83256838 -0.79805149 1.9161771 0 0 Z " fill="#F0E6F0" transform="translate(431,239)"/>
<path d="M0 0 C2.875 0.75 2.875 0.75 3.875 1.75 C4.125 5.1875 4.125 5.1875 3.875 8.75 C0.875 10.75 0.875 10.75 -1.6875 10.5 C-4.125 9.75 -4.125 9.75 -6.125 7.75 C-6.4883156 4.91613833 -6.4818671 3.34477849 -5 0.875 C-3.125 -0.25 -3.125 -0.25 0 0 Z " fill="#C5316F" transform="translate(205.125,222.25)"/>
<path d="M0 0 C2.4375 0.8125 2.4375 0.8125 4.4375 2.8125 C4.80546448 5.68262296 4.81259409 7.22024618 3.25 9.6875 C1.4375 10.8125 1.4375 10.8125 -1.125 10.625 C-3.5625 9.8125 -3.5625 9.8125 -5.5625 7.8125 C-5.93046448 4.94237704 -5.93759409 3.40475382 -4.375 0.9375 C-2.5625 -0.1875 -2.5625 -0.1875 0 0 Z " fill="#C42D6C" transform="translate(236.5625,222.1875)"/>
<path d="M0 0 C1.5912689 4.873261 2.21192221 8.80790596 2 14 C-0.31 13.67 -2.62 13.34 -5 13 C-5.33 9.37 -5.66 5.74 -6 2 C-2 0 -2 0 0 0 Z " fill="#FEFAFB" transform="translate(34,277)"/>
<path d="M0 0 C2.11182554 0.22973834 4.21568637 0.53447187 6.3125 0.875 C7.46363281 1.05804688 8.61476562 1.24109375 9.80078125 1.4296875 C13 2 13 2 14.91015625 2.54296875 C18.96179534 3.42902814 23.19385713 3.36743198 27.33203125 3.51757812 C32.78466655 3.78466655 32.78466655 3.78466655 35 6 C32.03 6 29.06 6 26 6 C25.67 6.66 25.34 7.32 25 8 C24.02160156 7.72285156 23.04320312 7.44570313 22.03515625 7.16015625 C13.47033592 4.72759764 13.47033592 4.72759764 4.6875 3.375 C1 3 1 3 -1 1 C-0.67 0.67 -0.34 0.34 0 0 Z " fill="#DCD1DC" transform="translate(232,50)"/>
<path d="M0 0 C1.32 0 2.64 0 4 0 C3.67 3.63 3.34 7.26 3 11 C1.68 10.67 0.36 10.34 -1 10 C-1.02689216 8.52093108 -1.04634621 7.04172517 -1.0625 5.5625 C-1.07410156 4.73878906 -1.08570312 3.91507813 -1.09765625 3.06640625 C-1 1 -1 1 0 0 Z " fill="#FEFDFD" transform="translate(29,231)"/>
<path d="M0 0 C2.12472576 -0.05386629 4.24983652 -0.09273071 6.375 -0.125 C7.55835938 -0.14820313 8.74171875 -0.17140625 9.9609375 -0.1953125 C13 0 13 0 15 2 C12.03 2 9.06 2 6 2 C5.67 2.66 5.34 3.32 5 4 C2.525 3.01 2.525 3.01 0 2 C0 1.34 0 0.68 0 0 Z " fill="#E8E4EA" transform="translate(252,54)"/>
<path d="M0 0 C3.64734979 0.22330713 5.38372835 0.38372835 8 3 C4.37 3 0.74 3 -3 3 C-2.01 2.01 -1.02 1.02 0 0 Z " fill="#E2E2E8" transform="translate(151,53)"/>
<path d="M0 0 C3.5 0.3125 3.5 0.3125 7 1 C7.33 1.66 7.66 2.32 8 3 C4.625 3.125 4.625 3.125 1 3 C0.34 2.34 -0.32 1.68 -1 1 C-0.67 0.67 -0.34 0.34 0 0 Z " fill="#E1DCE4" transform="translate(232,50)"/>
</svg>
