<?xml version="1.0" encoding="UTF-8"?>
<svg version="1.1" xmlns="http://www.w3.org/2000/svg" width="500" height="500">
<path d="M0 0 C165 0 330 0 500 0 C500 165 500 330 500 500 C335 500 170 500 0 500 C0 335 0 170 0 0 Z " fill="#FEFEFE" transform="translate(0,0)"/>
<path d="M0 0 C2.49949272 2.07425691 5.0225599 4.11906413 7.54443359 6.16601562 C12.07771632 9.87691872 16.55271325 13.6531081 21.01293945 17.45117188 C24.49963872 20.41442529 28.03642379 23.30362369 31.60693359 26.16601562 C36.05138009 29.76575738 40.05652227 33.63469776 43.98193359 37.79101562 C45.83670535 39.76545285 45.83670535 39.76545285 48.85693359 40.54101562 C49.06962891 40.00992188 49.28232422 39.47882813 49.50146484 38.93164062 C51.37940957 35.61953061 53.93735182 33.03169195 56.54443359 30.29101562 C57.63894687 29.12376211 58.73270105 27.95579634 59.82568359 26.78710938 C60.61458984 25.94575439 60.61458984 25.94575439 61.41943359 25.08740234 C63.16608089 23.20845126 64.86387649 21.2917053 66.54443359 19.35351562 C70.58722887 14.69252592 74.68829122 10.0899552 78.85693359 5.54101562 C79.74251953 4.55488281 79.74251953 4.55488281 80.64599609 3.54882812 C97.93584307 -14.80735303 121.76575308 -27.76175463 147.11865234 -28.83007812 C160.15718106 -29.07877487 171.77102982 -28.58013004 183.85693359 -23.45898438 C184.54464844 -23.16958984 185.23236328 -22.88019531 185.94091797 -22.58203125 C207.3227518 -13.30014763 223.26340253 3.3338643 232.16943359 24.91601562 C241.3439842 48.59315666 239.2580602 73.32369969 229.85693359 96.54101562 C225.75645729 105.81221833 220.50812336 113.87548319 213.85693359 121.54101562 C213.07318359 122.57226562 212.28943359 123.60351562 211.48193359 124.66601562 C202.18415252 134.84929966 189.98586355 141.55380022 177.35693359 146.72851562 C168.94258345 150.23527831 163.94922289 154.25743004 159.85693359 162.54101562 C158.92538733 165.37770098 158.92538733 165.37770098 158.85693359 168.54101562 C158.80666016 169.3428125 158.75638672 170.14460937 158.70458984 170.97070312 C158.27930603 182.98071805 161.52901323 192.50517723 169.56787109 201.44335938 C184.10989922 215.46383797 205.61459176 216.98778972 224.71630859 216.75585938 C230.76866665 216.57946009 236.14568413 215.55007926 241.85693359 213.54101562 C242.92041016 213.20070313 243.98388672 212.86039063 245.07958984 212.50976562 C253.05710364 209.74795968 259.37770237 205.92472466 265.85693359 200.54101562 C266.82566406 199.75984375 266.82566406 199.75984375 267.81396484 198.96289062 C279.03157486 188.93541079 284.29609671 173.06992714 285.85693359 158.54101562 C286.48677884 144.61662873 286.1443215 130.80111962 284.35693359 116.97851562 C281.54567821 95.0642124 281.18542073 75.52342125 294.84521484 56.81835938 C298.26087357 52.45069031 301.81162746 48.33349013 305.85693359 44.54101562 C306.51693359 44.87101562 307.17693359 45.20101562 307.85693359 45.54101562 C307.33744141 46.06308594 306.81794922 46.58515625 306.28271484 47.12304688 C293.43042711 60.68803079 290.23532076 78.8695572 290.34051323 96.99829292 C290.35349905 99.25177976 290.34154125 101.50410335 290.32447815 103.7575531 C290.29812963 107.73464238 290.29216869 111.71143155 290.2935791 115.68859863 C290.29583093 122.05257393 290.2810186 128.41617845 290.23799324 134.78001213 C290.22837181 136.96663715 290.23675238 139.15263918 290.24668884 141.33924866 C290.20844811 165.77451941 283.28926572 191.6828122 265.85693359 209.54101562 C258.33412375 216.77269505 250.29790592 221.32588564 240.85693359 225.54101562 C240.12732422 225.88003906 239.39771484 226.2190625 238.64599609 226.56835938 C229.05752631 230.63435606 218.11791019 230.98966199 207.85693359 230.54101562 C206.68710937 230.49654297 206.68710937 230.49654297 205.49365234 230.45117188 C191.4940087 229.43165964 178.30198669 221.65443375 168.85693359 211.54101562 C154.80925659 193.70583617 155.40917172 173.86938037 157.63818359 152.32226562 C157.71037109 151.73445312 157.78255859 151.14664063 157.85693359 150.54101562 C156.86693359 150.87101563 155.87693359 151.20101562 154.85693359 151.54101562 C126.38773323 153.07507028 102.21617877 142.74387307 80.85693359 124.54101562 C80.28378418 124.05729492 79.71063477 123.57357422 79.12011719 123.07519531 C75.59504605 120.09750768 72.10004571 117.08671738 68.61572266 114.06152344 C66.84702121 112.53244618 65.06870182 111.01540781 63.28662109 109.50195312 C57.59866454 104.66773533 51.97089378 99.78839136 46.48193359 94.72851562 C45.03367188 93.39433594 45.03367188 93.39433594 43.55615234 92.03320312 C41.84881441 90.45681875 40.14289961 88.87889041 38.43896484 87.29882812 C37.37742188 86.33589844 37.37742188 86.33589844 36.29443359 85.35351562 C35.69501953 84.80308594 35.09560547 84.25265625 34.47802734 83.68554688 C32.77921252 82.25263539 32.77921252 82.25263539 29.85693359 82.54101562 C27.8961477 84.28323282 27.8961477 84.28323282 25.91943359 86.66601562 C25.11763672 87.58511719 24.31583984 88.50421875 23.48974609 89.45117188 C21.70665152 91.53636098 19.93392224 93.6302449 18.16162109 95.72460938 C-3.98175992 121.86338485 -27.72198418 146.4770364 -63.58154297 150.33007812 C-85.34108323 152.12194267 -105.78718872 149.45018212 -123.51806641 135.72851562 C-125.08499976 134.36110689 -126.62609788 132.96365166 -128.14306641 131.54101562 C-129.49464844 130.30738281 -129.49464844 130.30738281 -130.87353516 129.04882812 C-147.84087724 112.90059911 -158.99260597 92.27741879 -159.61328125 68.7199707 C-159.71333149 56.78200874 -158.85116258 45.8963003 -155.14306641 34.54101562 C-154.78083984 33.39890625 -154.41861328 32.25679687 -154.04541016 31.08007812 C-149.61382465 18.43128154 -142.42376064 8.09326201 -133.14306641 -1.45898438 C-132.44568359 -2.22984375 -131.74830078 -3.00070313 -131.02978516 -3.79492188 C-92.56578608 -45.00132674 -37.83820341 -31.46866465 0 0 Z " fill="#63192D" transform="translate(185.14306640625,171.458984375)"/>
<path d="M0 0 C1.51049927 0.01305176 1.51049927 0.01305176 3.05151367 0.02636719 C10.24081006 0.16823442 16.76769469 0.90318893 23.5625 3.375 C24.39136719 3.64183594 25.22023438 3.90867188 26.07421875 4.18359375 C42.77166502 10.08143584 56.01884288 22.79794156 63.72216797 38.53710938 C72.40572926 57.52893082 72.7801983 75.86965439 65.5625 95.375 C58.77768767 110.52718634 46.07504116 123.27280441 30.5625 129.375 C15.32275626 134.3811955 0.41471402 133.81647559 -14.16015625 127.125 C-17.001382 125.65208179 -19.71411911 124.0562338 -22.4375 122.375 C-22.99663086 122.03227051 -23.55576172 121.68954102 -24.13183594 121.33642578 C-33.72607997 115.392789 -42.18750097 108.54530916 -50.57910156 101.02294922 C-53.04007131 98.84066522 -55.54970899 96.71898636 -58.06176758 94.59594727 C-63.13524826 90.30531415 -68.01161127 85.94699735 -72.64453125 81.17578125 C-75.74755274 78.05923897 -79.09315739 75.22733197 -82.4375 72.375 C-83.11683594 71.79105469 -83.79617187 71.20710938 -84.49609375 70.60546875 C-86.140766 69.19244048 -87.78876933 67.78329078 -89.4375 66.375 C-88.20340292 61.84997736 -85.73666727 59.47234677 -82.44042969 56.34643555 C-80.57224444 54.50762571 -78.85503797 52.61705765 -77.1484375 50.62890625 C-71.1215538 43.68379262 -64.77574534 37.03510936 -58.4375 30.375 C-57.88835937 29.79572754 -57.33921875 29.21645508 -56.7734375 28.61962891 C-41.03451098 12.10463095 -23.55809983 -0.34099076 0 0 Z " fill="#FEFDFE" transform="translate(328.4375,153.625)"/>
<path d="M0 0 C5.33984534 3.5067641 10.2875515 7.49466058 15.22705078 11.53857422 C16.70655216 12.74955244 18.19637331 13.94789689 19.6875 15.14453125 C31.07991738 24.33633309 42.03678571 34.06043571 52.87890625 43.890625 C53.75546875 44.674375 54.63203125 45.458125 55.53515625 46.265625 C59.75967237 50.04283941 63.93730826 53.81764041 67.87890625 57.890625 C64.39753754 65.7559395 57.64560857 72.3258418 51.53125 78.24609375 C49.87045024 79.89904103 48.34268234 81.61314138 46.81640625 83.390625 C29.99912615 102.82730087 12.70307119 121.86499769 -14.49072266 124.08398438 C-34.30457368 125.15479363 -52.48377221 120.11417981 -67.8125 107.05078125 C-80.63889792 95.04909251 -90.26485961 79.87154191 -91.12109375 61.890625 C-91.18296875 60.89160156 -91.24484375 59.89257812 -91.30859375 58.86328125 C-91.93290614 41.51910259 -86.56125332 24.40227882 -74.74609375 11.453125 C-54.44101979 -9.77726095 -25.85505457 -14.90335023 0 0 Z " fill="#FEFEFE" transform="translate(141.12109375,187.109375)"/>
<path d="M0 0 C3 0.25 3 0.25 5 2.25 C6.41093443 13.03250944 4.47912219 22.36291845 -2.125 31.04296875 C-4.32597455 33.55996161 -6.60010607 35.92322112 -9 38.25 C-9.928125 39.1575 -10.85625 40.065 -11.8125 41 C-29.88190786 53.75487614 -50.72858741 55.36261807 -72.19140625 55.453125 C-73.31924026 55.46004868 -74.44707428 55.46697235 -75.60908508 55.47410583 C-79.26025906 55.49135907 -82.91128707 55.49770236 -86.5625 55.5 C-88.44524628 55.50200912 -88.44524628 55.50200912 -90.36602783 55.50405884 C-120.71150625 55.49707844 -150.7732178 53.66008508 -180.90234375 50.06640625 C-195.45561642 48.35113079 -210.05783064 47.05527702 -224.65136719 45.73632812 C-228.08260903 45.42621003 -231.51283066 45.10755769 -234.94238281 44.77929688 C-255.91553803 42.78540674 -276.74142652 41.98165771 -297.8125 42 C-299.49166 42.00102722 -299.49166 42.00102722 -301.20474243 42.0020752 C-319.12980822 42.03838916 -337.12485538 42.11291131 -354.875 44.875 C-355.96216309 45.04322266 -357.04932617 45.21144531 -358.16943359 45.38476562 C-370.3124796 47.41894289 -382.47425214 50.74347041 -393.3984375 56.53125 C-397 58.25 -397 58.25 -400 57.25 C-398.7914646 53.62439381 -397.42632022 53.13073886 -394.13818359 51.44604492 C-393.45320801 51.1132251 -392.76823242 50.78040527 -392.0625 50.4375 C-391.35174316 50.08856689 -390.64098633 49.73963379 -389.90869141 49.38012695 C-360.19899141 35.22448105 -327.45872675 34.04489781 -295.12890625 34.11962891 C-292.36973619 34.12501027 -289.61072784 34.11962977 -286.8515625 34.11328125 C-272.87880801 34.10611653 -259.06772887 34.65941573 -245.17260742 36.17138672 C-230.84593125 37.7035432 -216.50366333 39.07211905 -202.1604948 40.43984985 C-197.4861702 40.88558395 -192.8121847 41.33433232 -188.13891602 41.79101562 C-156.7017467 44.86002858 -125.13285036 47.69235703 -93.5144043 47.51074219 C-91.23526434 47.4996232 -88.95685759 47.51102371 -86.67773438 47.5234375 C-63.28472686 47.54509712 -33.17766764 46.6823481 -15 30.25 C-8.3980718 22.48713951 -5.77066262 14.62381099 -5.30859375 4.5703125 C-4.81464057 0.8562848 -3.64117629 0.30343136 0 0 Z " fill="#DD3D67" transform="translate(414,79.75)"/>
<path d="M0 0 C0.99 0.495 0.99 0.495 2 1 C1.48050781 1.52207031 0.96101562 2.04414063 0.42578125 2.58203125 C-12.42650649 16.14701517 -15.62161284 34.32854157 -15.51642036 52.4572773 C-15.50343454 54.71076413 -15.51539234 56.96308773 -15.53245544 59.21653748 C-15.55880396 63.19362675 -15.56476491 67.17041593 -15.56335449 71.14758301 C-15.56110267 77.5115583 -15.575915 83.87516283 -15.61894035 90.23899651 C-15.62856179 92.42562152 -15.62018121 94.61162356 -15.61024475 96.79823303 C-15.64848549 121.23350378 -22.56766788 147.14179657 -40 165 C-47.52280984 172.23167943 -55.55902767 176.78487002 -65 181 C-65.72960937 181.33902344 -66.45921875 181.67804688 -67.2109375 182.02734375 C-76.79940729 186.09334043 -87.7390234 186.44864637 -98 186 C-98.77988281 185.97035156 -99.55976563 185.94070313 -100.36328125 185.91015625 C-114.34674232 184.8918225 -127.57838793 177.12210368 -137 167 C-141.96785787 160.53982119 -148 151.47052227 -148 143 C-144.26872827 144.24375724 -144.14654021 145.1696379 -142.375 148.5625 C-135.86056204 159.72783254 -125.91853848 165.22919193 -113.78125 169 C-98.03656622 173.13496746 -79.53011236 174.46307499 -64 169 C-62.93652344 168.6596875 -61.87304688 168.319375 -60.77734375 167.96875 C-52.79982995 165.20694405 -46.47923122 161.38370904 -40 156 C-39.35417969 155.47921875 -38.70835937 154.9584375 -38.04296875 154.421875 C-26.82535873 144.39439517 -21.56083688 128.52891152 -20 114 C-19.37015476 100.07561311 -19.71261209 86.26010399 -21.5 72.4375 C-24.31125538 50.52319677 -24.67151286 30.98240562 -11.01171875 12.27734375 C-7.59606003 7.90967468 -4.04530613 3.7924745 0 0 Z " fill="#070707" transform="translate(491,216)"/>
<path d="M0 0 C0.66 0.33 1.32 0.66 2 1 C1.48050781 1.52207031 0.96101563 2.04414063 0.42578125 2.58203125 C-12.42650649 16.14701517 -15.62161284 34.32854157 -15.51642036 52.4572773 C-15.50343454 54.71076413 -15.51539234 56.96308773 -15.53245544 59.21653748 C-15.55880396 63.19362675 -15.56476491 67.17041593 -15.56335449 71.14758301 C-15.56110267 77.5115583 -15.575915 83.87516283 -15.61894035 90.23899651 C-15.62856179 92.42562152 -15.62018121 94.61162356 -15.61024475 96.79823303 C-15.63207457 111.08003784 -18.30921925 124.47617647 -23 138 C-23.38671875 139.15048828 -23.38671875 139.15048828 -23.78125 140.32421875 C-24.5 142.25 -24.5 142.25 -26 145 C-28.1875 145.9375 -28.1875 145.9375 -30 146 C-28.9970693 143.43952255 -27.96106076 140.91492483 -26.81640625 138.4140625 C-16.95601609 116.48160588 -18.9317286 92.49318706 -21.91674805 69.18310547 C-24.52926079 48.4266359 -23.84399364 29.84924079 -11.01171875 12.27734375 C-7.59606003 7.90967468 -4.04530613 3.7924745 0 0 Z " fill="#191919" transform="translate(491,216)"/>
<path d="M0 0 C1.07056641 -0.00386719 2.14113281 -0.00773437 3.24414062 -0.01171875 C4.78811523 -0.00978516 4.78811523 -0.00978516 6.36328125 -0.0078125 C7.7541394 -0.00612061 7.7541394 -0.00612061 9.1730957 -0.00439453 C11.4910779 0.11489186 13.46818123 0.47048133 15.6875 1.125 C15.6875 2.115 15.6875 3.105 15.6875 4.125 C14.76227539 4.16987549 13.83705078 4.21475098 12.88378906 4.26098633 C-11.61662597 5.48296355 -34.50531694 7.56576647 -58.15625 14.50830078 C-60.19914782 15.09258066 -62.24815972 15.62240352 -64.3125 16.125 C-64.3125 15.465 -64.3125 14.805 -64.3125 14.125 C-43.31502047 5.41235289 -22.84512545 -0.08404093 0 0 Z " fill="#DE426B" transform="translate(91.3125,102.875)"/>
<path d="M0 0 C1.32 0 2.64 0 4 0 C5.56929255 3.1385851 5.27716493 5.50772191 5 9 C3.16400007 14.47946092 0.41280275 19.34617807 -3 24 C-3.721875 24.99 -4.44375 25.98 -5.1875 27 C-10.61938812 33.32616238 -18.95107873 37.98429433 -27 40 C-29.29296875 39.59765625 -29.29296875 39.59765625 -31 39 C-29.85724609 38.50693359 -29.85724609 38.50693359 -28.69140625 38.00390625 C-18.32859831 33.23002843 -10.79740379 27.22640452 -5.98828125 16.69921875 C-4.52393232 12.69975192 -3.55052272 8.6331634 -2.67578125 4.46875 C-2 2 -2 2 0 0 Z " fill="#DD3F69" transform="translate(427,93)"/>
<path d="M0 0 C2.80852453 5.0618756 1.62626864 8.74258623 0.140625 14.09765625 C-3.58104396 26.56524725 -3.58104396 26.56524725 -6 31 C-8.1875 31.9375 -8.1875 31.9375 -10 32 C-8.9970693 29.43952255 -7.96106076 26.91492483 -6.81640625 24.4140625 C-3.20644983 16.3844398 -1.45154054 8.63843636 0 0 Z " fill="#1B1B1B" transform="translate(471,330)"/>
<path d="M0 0 C0.99 0.33 1.98 0.66 3 1 C2.67 2.093125 2.34 3.18625 2 4.3125 C0.05046082 12.12448324 0.81049762 20.11954672 2 28 C1.01 27.67 0.02 27.34 -1 27 C-1.02898816 23.06251542 -1.04679464 19.12505821 -1.0625 15.1875 C-1.07087891 14.06794922 -1.07925781 12.94839844 -1.08789062 11.79492188 C-1.09111328 10.72177734 -1.09433594 9.64863281 -1.09765625 8.54296875 C-1.10289307 7.55321045 -1.10812988 6.56345215 -1.11352539 5.54370117 C-1 3 -1 3 0 0 Z " fill="#262626" transform="translate(343,331)"/>
<path d="M0 0 C0.33 0.66 0.66 1.32 1 2 C-1.41656376 2.64622041 -3.83324646 3.29199004 -6.25 3.9375 C-7.27287109 4.21110352 -7.27287109 4.21110352 -8.31640625 4.49023438 C-11.53860894 5.35053121 -14.76053223 6.20683134 -18 7 C-18 6.34 -18 5.68 -18 5 C-15.56686628 3.96748938 -13.12943108 2.94880479 -10.6875 1.9375 C-9.65206055 1.49567383 -9.65206055 1.49567383 -8.59570312 1.04492188 C-3.33984375 -1.11328125 -3.33984375 -1.11328125 0 0 Z " fill="#E2597D" transform="translate(45,112)"/>
<path d="M0 0 C0.66 0.33 1.32 0.66 2 1 C1.45730469 1.58007812 0.91460937 2.16015625 0.35546875 2.7578125 C-4.22947436 7.74753511 -4.22947436 7.74753511 -7.75 13.5 C-9 16 -9 16 -11.1875 16.875 C-11.785625 16.91625 -12.38375 16.9575 -13 17 C-11.51299286 12.17170572 -8.78716744 9.2512231 -5.375 5.6875 C-4.6015625 4.86282227 -4.6015625 4.86282227 -3.8125 4.02148438 C-2.54799382 2.67501946 -1.27485078 1.33667465 0 0 Z " fill="#1D1D1D" transform="translate(491,216)"/>
<path d="M0 0 C3.12378018 6.24756036 0.94877317 11.63400764 -1 18 C-1.66 17.67 -2.32 17.34 -3 17 C-2.01 11.39 -1.02 5.78 0 0 Z " fill="#444444" transform="translate(471,330)"/>
<path d="M0 0 C0.66 0.33 1.32 0.66 2 1 C-0.31 3.64 -2.62 6.28 -5 9 C-5.99 8.67 -6.98 8.34 -8 8 C-5.36 5.36 -2.72 2.72 0 0 Z " fill="#464646" transform="translate(491,216)"/>
</svg>
